<svg width="51" height="69" viewBox="0 0 51 69" fill="none" xmlns="http://www.w3.org/2000/svg">
<path d="M25.3327 28.6445C24.6615 32.2479 23.8507 35.7836 22.4673 39.1653C21.6805 41.0881 20.7259 42.9176 19.3467 44.492C18.1824 45.8215 16.8144 46.8232 15.0251 47.1459C12.0792 47.6827 8.82256 45.4097 8.36625 42.4622C8.19503 41.3535 8.48953 40.3681 9.31739 39.5762C9.403 39.4906 9.52885 39.4444 9.68038 39.3536C8.69414 39.1481 7.8406 39.0112 7.00932 38.7834C6.4606 38.6302 5.93035 38.4171 5.42808 38.1482C3.26384 37.0113 2.30327 35.0285 2.72534 32.6177C2.81095 32.1554 2.91711 31.6974 3.03953 31.248C3.68846 28.8414 5.32021 27.5513 7.72674 27.1557C9.67268 26.8356 11.6238 26.9734 13.574 27.1121C16.2202 27.3013 18.8613 27.6129 21.5204 27.4066C22.2977 27.3458 23.07 27.2259 23.8447 27.1335L23.8379 27.0213C23.1427 26.9811 22.4467 26.9494 21.7524 26.8981C17.6593 26.595 13.6193 26 9.74287 24.5866C7.82947 23.8871 6.02137 22.9873 4.49749 21.603C3.09689 20.3317 2.18 18.8078 2.04473 16.8679C1.84611 14.0102 4.03946 10.9898 6.76789 10.4308C7.83032 10.2133 8.80801 10.4308 9.66241 11.1234L9.99543 11.3947C10.0716 10.5557 10.0725 9.72532 10.2386 8.93C10.4235 8.04563 10.6666 7.14843 11.0476 6.33341C11.914 4.48592 13.4447 3.5228 15.4728 3.37213C16.7586 3.28318 18.0488 3.46457 19.2603 3.90462C20.9049 4.48764 21.9373 5.68962 22.546 7.28712C23.1119 8.76905 23.3234 10.3237 23.4021 11.893C23.5168 14.2447 23.5622 16.6016 23.6718 18.9499C23.7814 21.2982 24.0493 23.6106 24.8635 25.8331C24.9166 25.9777 24.9834 26.1181 25.0099 26.1806C24.7813 24.2424 24.4817 22.2331 24.3173 20.2118C24.0005 16.3165 23.986 12.4272 25.0433 8.6158C25.509 6.93697 26.2119 5.37114 27.4079 4.06729C29.668 1.6034 33.2294 1.30633 35.7318 3.36785C37.254 4.62119 38.0579 6.66729 36.8337 8.75364C36.8214 8.77459 36.8127 8.79745 36.808 8.82127C37.867 8.74251 38.9431 8.58584 40.0158 8.60639C40.8692 8.62494 41.7158 8.76268 42.5311 9.01561C44.2724 9.55753 45.2278 10.8348 45.304 12.6327C45.4495 16.0837 44.2185 18.8463 41.0577 20.5543C39.2642 21.5234 37.3156 22.073 35.398 22.716C33.3065 23.4163 31.2167 24.132 29.1706 24.9504C28.1107 25.3785 27.145 26.0342 26.1374 26.5873L26.2033 26.7362C26.3249 26.6986 26.4473 26.6643 26.5663 26.6215C29.7236 25.4812 32.9435 24.5789 36.2746 24.1174C38.9465 23.7476 41.6279 23.5918 44.2424 24.4299C45.1252 24.7056 45.9585 25.1197 46.7115 25.6567C49.4716 27.6763 49.737 31.9191 47.3056 34.3334C46.2243 35.4069 44.9633 35.7425 43.5284 35.1595C43.7741 36.0208 44.0952 36.8623 44.2382 37.733C44.3826 38.5602 44.4137 39.4032 44.3306 40.2388C44.1311 42.011 43.1158 43.2558 41.5106 43.9903C40.1408 44.6153 38.7094 44.9706 37.1898 44.7437C35.9296 44.5553 34.9519 43.8627 34.1249 42.9313C33.2166 41.9082 32.542 40.732 31.9761 39.4992C31.0344 37.453 30.1526 35.383 29.2177 33.3352C28.4643 31.6854 27.5911 30.0982 26.4602 28.6711C26.3557 28.5392 26.2418 28.4142 26.0518 28.1925C26.3026 29.2464 26.5406 30.1753 26.7444 31.1118C27.6536 35.3016 28.0765 39.5343 27.7717 43.8191C27.211 51.5977 24.6238 58.5767 19.5017 64.537C18.9264 65.2056 18.2723 65.8074 17.6533 66.4384C17.5719 66.5181 17.4862 66.5933 17.3965 66.6636C17.191 66.8348 16.9685 66.8639 16.7972 66.6404C16.626 66.417 16.6996 66.2227 16.894 66.0412C22.3799 60.9045 25.3789 54.4777 26.586 47.1494C27.4721 41.7704 27.0997 36.4317 25.9311 31.1315C25.741 30.2942 25.5304 29.4707 25.3327 28.6445Z" stroke="black" stroke-width="3" stroke-linecap="round" stroke-linejoin="round"/>
</svg>
