<svg width="51" height="65" viewBox="0 0 51 65" fill="none" xmlns="http://www.w3.org/2000/svg">
<path d="M34.3623 61.4955L34.4299 61.4347C34.4846 61.385 34.5354 61.3313 34.5821 61.274C34.5077 61.3518 34.435 61.4245 34.3623 61.4955ZM37.5948 35.0879L37.5762 35.1183L37.5914 35.1048C37.5914 35.1048 37.5965 35.0913 37.5948 35.0879ZM35.8687 56.3205C35.9206 56.2262 35.9675 56.1291 36.009 56.0297C35.965 56.1261 35.9177 56.2241 35.8687 56.3205Z" fill="black"/>
<path d="M43.9752 15.8546C43.5374 15.836 43.375 15.6855 43.2111 15.3034C40.457 8.94835 35.5931 5.2222 28.8407 3.9424C27.4459 3.67697 26.0021 3.67528 24.4975 3.5451C24.6522 3.24226 24.8291 2.95124 25.0267 2.67443C25.4662 2.1385 26.0698 1.93562 26.7545 1.8849C26.8816 1.88203 27.0068 1.85292 27.1222 1.79939C27.2376 1.74585 27.3406 1.66906 27.4249 1.57381C27.5092 1.47857 27.5729 1.36693 27.612 1.24591C27.6511 1.12489 27.6648 0.997085 27.6522 0.870525C27.6116 0.371789 27.216 0.0252094 26.6632 0.00323121C26.5152 -0.00126008 26.3671 0.00609022 26.2202 0.0252102C25.3554 0.128922 24.5449 0.50111 23.9026 1.08943C23.2603 1.67775 22.8185 2.45261 22.6395 3.30503C22.5533 3.72262 22.4265 3.88323 21.9886 3.96099C19.6238 4.36486 17.3589 5.22009 15.3174 6.48003L15.3022 6.46482C13.6555 7.27632 10.8812 10.0151 10.5684 10.59C9.43027 11.9484 8.51704 13.4803 7.86339 15.1276C7.66052 15.6534 7.42721 15.9205 6.83042 15.8596C6.49293 15.8538 6.15669 15.9023 5.83464 16.0033C2.51931 16.7658 0.424621 19.809 0.8253 23.2443C1.20231 26.421 4.13893 28.9062 7.45425 28.8234C7.88874 28.8116 8.13051 28.9079 8.32831 29.3187C9.11375 30.8879 10.1795 32.3003 11.4729 33.4861C12.1204 34.0812 12.8102 34.6324 13.4391 35.1768C12.9843 36.2622 12.5498 37.3289 12.0866 38.389C11.9665 38.6645 11.7485 38.8962 11.6048 39.165C11.3258 39.6924 10.871 40.2216 10.844 40.7677C10.7425 42.6598 10.7425 44.556 10.844 46.4482C11.0485 49.9157 11.6758 53.3088 13.1195 56.499C14.6918 59.9749 17.0655 62.6749 20.7511 63.9783C21.8314 64.3621 22.9878 64.5329 24.1086 64.8H26.8914C27.0723 64.7577 27.2498 64.7002 27.4324 64.6749C29.8788 64.3367 32.0614 63.4407 33.9363 61.8786C34.08 61.7585 34.222 61.6351 34.3606 61.5066C34.4333 61.4356 34.506 61.3629 34.5804 61.2852C35.8737 59.9496 37.3835 57.6486 37.6726 56.9622C37.7841 56.7323 37.889 56.499 37.9887 56.2657C39.5475 52.6241 40.0902 48.7779 40.2389 44.8624C40.2558 44.3941 39.9549 43.9156 39.8011 43.4406C39.6937 43.1796 39.6094 42.9098 39.5492 42.6341C39.4021 41.5302 39.4088 40.389 39.1214 39.3256C38.741 37.9207 38.1358 36.5783 37.5999 35.1159L37.5846 35.1294C37.5795 35.1382 37.5738 35.1466 37.5677 35.1548C37.5712 35.1451 37.577 35.1364 37.5846 35.1294L37.6032 35.099C37.6032 35.099 37.6032 35.099 37.6032 35.1091C37.6759 35.0449 37.7554 34.9857 37.8349 34.9282C39.9025 33.4492 41.5813 31.4915 42.7275 29.2224C42.927 28.82 43.1975 28.8386 43.5458 28.8471C45.2633 28.8931 46.9293 28.2574 48.1796 27.079C49.43 25.9006 50.163 24.2752 50.2187 22.5579C50.2794 20.8411 49.6558 19.1705 48.485 17.9135C47.3141 16.6564 45.692 15.9158 43.9752 15.8546ZM2.71205 22.9079C2.44831 20.2198 4.25221 18.0051 6.98089 17.7802C6.28604 20.8757 6.35027 23.8935 7.2818 26.8758C5.14992 27.1023 2.92845 25.1547 2.70866 22.9079H2.71205ZM13.0249 48.8878C12.7831 46.6325 12.6868 44.3552 12.6242 42.0847C12.5802 40.318 12.7341 40.2453 14.401 40.7322C18.5858 41.9407 22.6468 43.5427 26.5296 45.5167C26.7139 45.6113 26.8931 45.7162 27.1636 45.8649C22.464 47.9436 18.0356 50.5882 13.9767 53.7399C13.6234 52.0391 13.1855 50.477 13.0147 48.8878H13.0249ZM38.359 45.1346C38.1459 48.854 37.6404 52.4905 36.08 55.8988C36.0597 55.9394 36.0394 55.9817 36.0191 56.029C35.9776 56.1284 35.9308 56.2254 35.8788 56.3198C35.8779 56.3225 35.8779 56.3255 35.8788 56.3282C35.0335 57.8853 32.3843 60.6698 32.2947 60.7628C26.5296 65.0857 17.5862 62.6224 14.9268 55.8836C14.7831 55.5184 14.964 55.395 15.1855 55.2226C21.7507 50.064 29.3463 46.3743 37.4595 44.4025C38.1527 44.2284 38.3961 44.4296 38.3488 45.1346H38.359ZM37.6573 42.3721C36.7207 42.6189 35.7977 42.8235 34.9016 43.1075C33.211 43.6384 31.5491 44.2233 29.8669 44.7609C29.6219 44.8453 29.3547 44.8381 29.1146 44.7407C24.4535 42.1506 19.5152 40.252 14.4061 38.7558L13.9666 38.6307L15.106 36.2233C22.0376 39.564 28.91 39.5741 35.845 36.2503C37.0132 38.0931 37.5745 40.1405 37.6472 42.3721H37.6573ZM35.9667 33.8648C30.1239 37.5166 23.872 37.7685 17.549 35.2072C13.5219 33.5741 10.5413 30.7321 9.18884 26.5157C7.45763 21.1192 8.59712 16.2028 12.0545 11.7835C12.1151 11.7107 12.1715 11.6345 12.2235 11.5553C13.0688 10.5105 15.2413 8.91961 16.2168 8.22814C17.1061 7.7311 17.997 7.23236 18.9218 6.8114C20.1303 6.25497 21.4246 5.90796 22.7494 5.78518C22.9536 6.20072 23.1793 6.60533 23.4256 6.99736C24.3876 8.34987 25.7029 9.09544 27.3783 9.14954C28.0106 9.16982 28.3927 8.85706 28.4485 8.31944C28.5043 7.75139 28.1712 7.37099 27.5203 7.26956C27.3513 7.2442 27.1822 7.24589 27.0131 7.21546C26.0292 7.04639 25.3073 6.51215 24.7849 5.60598C24.8789 5.5825 24.9744 5.56499 25.0706 5.55357C31.7283 5.55357 36.9879 8.21969 40.4317 13.9695C44.6515 21.0093 42.7242 29.6383 35.96 33.8648H35.9667ZM43.7149 26.891C44.6515 23.8749 44.7039 20.8673 44.0361 17.8242C46.3827 17.7971 48.3776 19.9882 48.3201 22.4345C48.261 24.9349 46.1544 27.011 43.7081 26.891H43.7149Z" fill="black"/>
<path d="M32.9942 23.4751C32.5399 23.4757 32.0904 23.3825 31.6738 23.2012C31.2572 23.02 30.8825 22.7546 30.5732 22.4218C30.1624 21.9873 30.1438 21.4446 30.5005 21.0693C30.8573 20.694 31.3763 20.6652 31.8531 21.0439C32.7812 21.7726 33.2174 21.7675 34.1844 21.0203C34.6392 20.6703 35.1278 20.6822 35.4947 21.049C35.8615 21.4159 35.8649 21.9755 35.4659 22.4015C35.1527 22.7443 34.7706 23.0171 34.3446 23.2021C33.9187 23.3871 33.4586 23.4801 32.9942 23.4751Z" fill="black"/>
<path d="M18.0056 23.4735C17.5512 23.4788 17.1005 23.3902 16.6819 23.2134C16.2633 23.0365 15.8857 22.7751 15.5728 22.4456C15.1332 21.9874 15.1078 21.4312 15.495 21.0423C15.8821 20.6535 16.3691 20.6603 16.8475 21.0423C17.7216 21.7473 18.2271 21.744 19.1315 21.0305C19.6134 20.6501 20.1206 20.6569 20.484 21.0491C20.8475 21.4413 20.8222 21.9806 20.4198 22.4118C20.1118 22.7449 19.7385 23.0111 19.3231 23.1937C18.9078 23.3764 18.4593 23.4716 18.0056 23.4735Z" fill="black"/>
<path d="M24.1017 24.1599C24.1136 23.3366 24.7628 22.6654 25.5252 22.684C26.2877 22.7026 26.9082 23.3923 26.8946 24.2157C26.8985 24.4057 26.8646 24.5947 26.7949 24.7716C26.7253 24.9485 26.6213 25.1098 26.4889 25.2462C26.3565 25.3827 26.1984 25.4916 26.0237 25.5666C25.849 25.6415 25.6612 25.6812 25.4711 25.6831C24.7019 25.6662 24.0899 24.9917 24.1017 24.1599Z" fill="black"/>
<path d="M22.7124 54.4512C22.8511 54.5526 23.2061 54.6912 23.3346 54.9431C23.4631 55.195 23.48 55.6448 23.3346 55.8679C23.0461 56.3031 22.673 56.6756 22.2374 56.9634C22.0932 57.0323 21.9352 57.0672 21.7755 57.0654C21.6158 57.0637 21.4586 57.0253 21.316 56.9533C21.188 56.8564 21.0812 56.7345 21.0018 56.595C20.9225 56.4555 20.8723 56.3013 20.8544 56.1418C20.7987 55.6008 21.9821 54.4732 22.7124 54.4512Z" fill="black"/>
<path d="M31.7858 56.18C31.7858 56.885 30.9776 57.3736 30.3876 56.9746C29.9564 56.6778 29.5824 56.3056 29.2836 55.8757C28.8745 55.284 29.3462 54.4877 30.0579 54.4708C30.6446 54.4573 31.7908 55.5917 31.7858 56.18Z" fill="black"/>
<path d="M34.0941 49.467C34.0941 50.0519 33.0898 51.0376 32.5015 51.0325C31.7813 51.0325 31.3045 50.2582 31.7035 49.658C31.9703 49.2554 32.3153 48.9104 32.7179 48.6436C33.3045 48.2565 34.0958 48.7637 34.0941 49.467Z" fill="black"/>
<path d="M32.4791 40.9338C32.4791 41.4934 31.8282 42.1341 31.2855 42.1172C31.041 42.1031 30.8111 41.9965 30.6422 41.8192C30.4733 41.6418 30.3781 41.4069 30.376 41.162C30.376 40.5923 31.0117 39.9786 31.5746 39.9904C31.8188 39.9983 32.0501 40.1015 32.2191 40.2778C32.3881 40.4541 32.4815 40.6895 32.4791 40.9338Z" fill="black"/>
<path d="M16.6433 44.5781C17.3602 44.6052 18.4236 45.5925 18.383 46.1318C18.3593 46.4243 18.1801 46.8233 17.9485 46.9518C17.7958 47.0232 17.6293 47.0602 17.4608 47.0602C17.2922 47.0602 17.1257 47.0232 16.973 46.9518C16.5785 46.7147 16.2499 46.3822 16.0178 45.9847C15.9514 45.8396 15.917 45.6819 15.917 45.5223C15.917 45.3628 15.9514 45.2051 16.0178 45.06C16.1497 44.8148 16.5064 44.6779 16.6433 44.5781Z" fill="black"/>
<path d="M34.3589 61.498C34.2118 61.6384 34.0698 61.7635 33.9346 61.87C34.0783 61.75 34.2203 61.6265 34.3589 61.498Z" fill="black"/>
</svg>
