<svg width="115" height="114" viewBox="0 0 115 114" fill="none" xmlns="http://www.w3.org/2000/svg">
<path d="M47.0073 56.5879L37.7903 65.8049L28.5732 56.5879L37.7903 47.3708L47.0073 56.5879ZM37.7903 64.7361L45.9426 56.5838L37.7944 48.4356L29.638 56.592L37.7903 64.7361Z" fill="#B5030A"/>
<path d="M66.6216 76.2031L57.4046 85.4202L48.1875 76.2031L57.4045 66.9861L66.6216 76.2031ZM57.4045 84.3595L65.5568 76.2073L57.4045 68.055L49.2523 76.2072L57.4045 84.3595Z" fill="#B5030A"/>
<path d="M66.6214 36.9748L57.4085 46.1878L48.1914 36.9707L57.4043 27.7578L66.6214 36.9748ZM57.4043 45.123L65.5566 36.9707L57.4085 28.8225L49.2561 36.9748L57.4043 45.123Z" fill="#B5030A"/>
<path d="M86.2356 56.5901L77.0227 65.803L67.8057 56.5859L77.0186 47.373L86.2356 56.5901ZM77.0227 64.7424L85.175 56.5901L77.0227 48.4378L68.8704 56.5901L77.0227 64.7424Z" fill="#B5030A"/>
<path d="M77.5528 56.5879L57.4085 76.7322L37.2642 56.5879L57.4085 36.4436L77.5528 56.5879ZM57.4043 75.6675L76.4921 56.5797L57.4126 37.5001L38.3289 56.5838L57.4043 75.6675Z" fill="#B5030A"/>
<path d="M109.488 56.5881L57.409 108.667L5.32568 56.584L57.4049 4.50474L109.488 56.5881ZM57.4049 107.603L108.423 56.584L57.409 5.56953L6.39045 56.5881L57.4049 107.603Z" fill="#B5030A"/>
<path d="M114.01 56.6054L57.4415 113.174L0.835938 56.5684L57.4045 -0.000182152L114.01 56.6054ZM57.4209 112.126L112.945 56.6012L57.4456 1.10156L1.92126 56.6259L57.4209 112.126Z" fill="#B5030A"/>
<path d="M27.0353 56.0957L22.7804 60.3507L18.5254 56.0957L22.7804 51.8407L27.0353 56.0957ZM22.7804 59.2818L25.9665 56.0957L22.7762 52.9055L19.5902 56.0916L22.7804 59.2818Z" fill="#B5030A"/>
<path d="M53.0872 56.2481L32.2399 77.0954L14.8829 59.7384L18.5253 56.0959L15.035 52.6056L32.2399 35.4007L53.0872 56.2481ZM32.2399 76.0265L52.0184 56.248L32.2399 36.4696L16.1039 52.6056L19.5901 56.0918L15.9477 59.7342L32.2399 76.0265Z" fill="#B5030A"/>
<path d="M27.0353 56.0957L22.7804 60.3507L18.5254 56.0957L22.7804 51.8407L27.0353 56.0957ZM22.7804 59.2818L25.9665 56.0957L22.7762 52.9055L19.5902 56.0916L22.7804 59.2818Z" fill="#B5030A"/>
<path d="M53.0872 56.2481L32.2399 77.0954L14.8829 59.7384L18.5253 56.0959L15.035 52.6056L32.2399 35.4007L53.0872 56.2481ZM32.2399 76.0265L52.0184 56.248L32.2399 36.4696L16.1039 52.6056L19.5901 56.0918L15.9477 59.7342L32.2399 76.0265Z" fill="#B5030A"/>
<path d="M61.1701 21.9609L56.9151 26.2159L52.6602 21.9609L56.9151 17.706L61.1701 21.9609ZM56.911 25.1511L60.1012 21.9609L56.911 18.7707L53.7208 21.9609L56.911 25.1511Z" fill="#B5030A"/>
<path d="M77.9144 31.4199L57.067 52.2672L36.2197 31.4199L53.4246 14.215L56.9149 17.7053L60.5573 14.0629L77.9144 31.4199ZM57.0671 51.1983L76.8332 31.4323L60.5409 15.14L56.8985 18.7824L53.4123 15.2962L37.2763 31.4322L57.0671 51.1983Z" fill="#B5030A"/>
<path d="M62.1441 91.2045L57.8891 95.4594L53.6465 91.2168L57.9014 86.9618L62.1441 91.2045ZM57.8891 94.3906L61.0752 91.2045L57.9097 88.0389L54.7236 91.225L57.8891 94.3906Z" fill="#B5030A"/>
<path d="M78.5929 81.7537L61.388 98.9586L57.8895 95.46L54.247 99.1025L36.9023 81.7578L57.7497 60.9105L78.5929 81.7537ZM61.3921 97.8938L77.5281 81.7578L57.7456 61.9753L37.9671 81.7537L54.2594 98.0459L57.9018 94.4035L61.3921 97.8938Z" fill="#B5030A"/>
<path d="M62.1441 91.2045L57.8891 95.4594L53.6465 91.2168L57.9014 86.9618L62.1441 91.2045ZM57.8891 94.3906L61.0752 91.2045L57.9097 88.0389L54.7236 91.225L57.8891 94.3906Z" fill="#B5030A"/>
<path d="M78.5929 81.7537L61.388 98.9586L57.8895 95.46L54.247 99.1025L36.9023 81.7578L57.7497 60.9105L78.5929 81.7537ZM61.3921 97.8938L77.5281 81.7578L57.7456 61.9753L37.9671 81.7537L54.2594 98.0459L57.9018 94.4035L61.3921 97.8938Z" fill="#B5030A"/>
<path d="M96.2784 57.0697L92.0234 61.3247L87.7808 57.082L92.0357 52.8271L96.2784 57.0697ZM92.0193 60.2599L95.2095 57.0697L92.044 53.9041L88.8538 57.0944L92.0193 60.2599Z" fill="#B5030A"/>
<path d="M99.7776 60.568L82.5727 77.7729L61.7295 56.9297L82.5768 36.0824L99.9215 53.4271L96.2791 57.0695L99.7776 60.568ZM82.5768 76.7081L98.7129 60.5721L95.2225 57.0818L98.8526 53.4517L82.5604 37.1595L62.7819 56.9379L82.5768 76.7081Z" fill="#B5030A"/>
<path d="M78.5394 37.8499L63.8053 52.5841L61.4126 50.1914L76.1467 35.4573L78.5394 37.8499ZM63.8011 51.5193L77.4828 37.8376L76.1549 36.5097L62.4856 50.1791L63.8011 51.5193Z" fill="#B5030A"/>
<path d="M53.4041 62.9866L38.67 77.7208L36.2773 75.3281L51.0115 60.594L53.4041 62.9866ZM38.67 76.6519L52.3394 62.9825L51.0115 61.6547L37.3421 75.324L38.67 76.6519Z" fill="#B5030A"/>
<path d="M53.4041 50.1911L51.0115 52.5837L36.2773 37.8496L38.67 35.457L53.4041 50.1911ZM51.0115 51.5148L52.3353 50.1911L38.6659 36.5217L37.3421 37.8455L51.0115 51.5148Z" fill="#B5030A"/>
<path d="M78.5401 75.328L76.1474 77.7207L61.4092 62.9824L63.8018 60.5898L78.5401 75.328ZM76.1474 76.6518L77.4712 75.328L63.8018 61.6586L62.4781 62.9824L76.1474 76.6518Z" fill="#B5030A"/>
</svg>
