<svg width="65" height="65" viewBox="0 0 65 65" fill="none" xmlns="http://www.w3.org/2000/svg">
<path d="M32.4996 58.32C39.374 58.32 45.9669 55.5892 50.8278 50.7282C55.6888 45.8673 58.4196 39.2744 58.4196 32.4C58.4196 25.5256 55.6888 18.9327 50.8278 14.0718C45.9669 9.21085 39.374 6.48 32.4996 6.48C25.6252 6.48 19.0323 9.21085 14.1714 14.0718C9.31046 18.9327 6.57961 25.5256 6.57961 32.4C6.57961 39.2744 9.31046 45.8673 14.1714 50.7282C19.0323 55.5892 25.6252 58.32 32.4996 58.32ZM32.4996 0C36.7544 0 40.9676 0.838051 44.8986 2.4663C48.8295 4.09456 52.4013 6.48112 55.4099 9.48974C58.4185 12.4984 60.8051 16.0701 62.4333 20.0011C64.0616 23.932 64.8996 28.1452 64.8996 32.4C64.8996 40.993 61.4861 49.2341 55.4099 55.3103C49.3337 61.3864 41.0926 64.8 32.4996 64.8C14.5824 64.8 0.0996094 50.22 0.0996094 32.4C0.0996094 23.807 3.51317 15.5659 9.58935 9.48974C15.6655 3.41356 23.9066 0 32.4996 0ZM31.6896 16.2C33.0317 16.2 34.1196 17.2879 34.1196 18.63V33.21L46.6732 40.6585C47.7884 41.3201 48.148 42.7654 47.4729 43.8725C46.807 44.9647 45.3845 45.3149 44.2876 44.6568L29.2596 35.64V18.63C29.2596 17.2879 30.3476 16.2 31.6896 16.2Z" fill="black"/>
<path d="M53.4593 53.3597C47.9269 58.892 40.4235 62 32.5996 62C24.7757 62 17.2723 58.892 11.74 53.3597C6.20764 47.8273 3.09961 40.3239 3.09961 32.5C3.09961 24.6761 6.20764 17.1727 11.74 11.6403C17.2723 6.10803 24.7757 3 32.5996 3C40.4235 3 47.9269 6.10803 53.4593 11.6403C58.9916 17.1727 62.0996 24.6761 62.0996 32.5C62.0996 40.3239 58.9916 47.8273 53.4593 53.3597Z" fill="white"/>
<path d="M33.9664 33.2092V18.6292C33.9664 17.2872 32.8785 16.1992 31.5364 16.1992C30.1944 16.1992 29.1064 17.2872 29.1064 18.6292V35.6392L44.1344 44.656C45.2313 45.3142 46.6538 44.9639 47.3198 43.8717C47.9948 42.7646 47.6352 41.3194 46.5201 40.6577L33.9664 33.2092Z" fill="black"/>
</svg>
