<svg width="45" height="48" viewBox="0 0 45 48" fill="none" xmlns="http://www.w3.org/2000/svg">
<path d="M29.5784 4.83055C29.5784 3.82464 29.5784 2.90857 29.5784 1.99354C29.5857 0.720222 30.2803 0.0172352 31.5631 0.00887873C32.9126 -0.00295958 34.2626 -0.00295958 35.6128 0.00887873C36.8966 0.0193243 37.586 0.714999 37.5891 1.99354C37.5954 4.09309 37.6016 6.19265 37.5818 8.29116C37.5818 8.66616 37.703 8.84583 38.0331 9.0046C39.8767 9.89247 41.7078 10.8075 43.5462 11.7079C43.9327 11.898 44.2774 12.1257 44.3735 12.5759C44.4665 13.0094 44.3735 13.4116 44.0184 13.7061C43.8618 13.8469 43.6672 13.9384 43.4589 13.969C43.2506 13.9997 43.0379 13.9682 42.8474 13.8785C42.3899 13.6811 41.947 13.4492 41.4989 13.2288C39.7963 12.3931 38.1072 11.5272 36.3879 10.7281C35.6191 10.3709 35.2963 9.8674 35.313 9.01922C35.3517 6.98756 35.3256 4.95381 35.3256 2.9211V2.28496H31.8566C31.8472 2.44165 31.8273 2.61609 31.8273 2.79053C31.8273 3.98968 31.8273 5.19301 31.8273 6.38903C31.8273 7.58504 31.0586 8.07599 29.9774 7.55057C27.5833 6.38694 25.1881 5.22539 22.8003 4.04713C22.667 3.96885 22.5153 3.92714 22.3607 3.92622C22.2061 3.9253 22.054 3.96521 21.9197 4.04191C15.4999 7.19926 9.07551 10.3489 2.64661 13.491C2.44091 13.5993 2.22677 13.6908 2.0063 13.7646C1.76449 13.8345 1.50608 13.82 1.27367 13.7233C1.04125 13.6267 0.848702 13.4537 0.727761 13.233C0.606498 13.0129 0.564608 12.7579 0.609114 12.5106C0.653619 12.2634 0.781809 12.039 0.972184 11.875C1.14092 11.7404 1.32543 11.6267 1.52162 11.5366C8.03548 8.34235 14.5493 5.1481 21.0632 1.95384C21.9396 1.52348 22.7669 1.51722 23.6401 1.95384C25.4253 2.84694 27.2271 3.7087 29.0227 4.58195C29.1846 4.65402 29.3486 4.72505 29.5784 4.83055Z" fill="black"/>
<path d="M22.5665 47.9963C20.6334 47.9963 18.7002 47.9963 16.7671 47.9963C15.1637 47.9963 14.4169 47.2443 14.4179 45.6325C14.4179 44.1325 14.3678 42.6294 14.4534 41.1347C14.6205 38.236 16.6846 36.0832 19.578 35.9014C21.6078 35.7776 23.6432 35.7776 25.673 35.9014C28.5257 36.0706 30.5824 38.2433 30.7297 41.1305C30.8091 42.7433 30.7809 44.3686 30.7454 45.9783C30.7172 47.2578 29.8972 47.9911 28.5664 47.9974C26.5661 48.0037 24.5658 47.9963 22.5665 47.9963ZM28.5894 45.8341C28.5894 44.1869 28.6416 42.5887 28.5737 40.9957C28.5079 39.4289 27.151 38.0856 25.5863 38.0344C23.7061 37.9728 21.8196 37.9571 19.9384 38.0135C17.9067 38.0752 16.5895 39.4947 16.5676 41.5316C16.553 42.8477 16.5676 44.1639 16.5676 45.48C16.5729 45.5912 16.5841 45.7021 16.601 45.8122H17.5286C17.5286 44.9765 17.5286 44.1743 17.5286 43.3763C17.5286 42.6931 17.5286 42.01 17.5652 41.3289C17.5934 40.8641 17.9109 40.6082 18.3632 40.5915C18.8155 40.5748 19.1268 40.815 19.2155 41.2694C19.2543 41.5157 19.27 41.765 19.2626 42.0142C19.2626 43.275 19.2626 44.5368 19.2626 45.8164H26.2684C26.2684 44.3832 26.2684 42.9877 26.2684 41.5911C26.2684 40.9644 26.6121 40.5758 27.1291 40.5779C27.6462 40.58 27.9794 40.9654 27.9825 41.5984C27.9898 42.831 27.9825 44.0646 27.9825 45.2972V45.8341H28.5894Z" fill="black"/>
<path d="M7.20606 36.5127V35.9069C7.20606 34.0748 7.20606 32.2419 7.20606 30.4084C7.20336 30.2093 7.21805 30.0105 7.24994 29.814C7.33141 29.3554 7.6218 29.1121 8.08558 29.1131C8.54937 29.1142 8.8293 29.369 8.91286 29.8224C8.94263 30.0025 8.95627 30.185 8.9536 30.3676C8.9536 32.2179 8.9536 34.0674 8.9536 35.9163V36.5127H11.0427C11.8261 36.5127 12.6096 36.5023 13.3919 36.5127C14.0803 36.5263 14.5556 36.9692 14.5566 37.5636C14.5577 38.1579 14.0855 38.6248 13.3972 38.6269C10.6813 38.6374 7.96546 38.6478 5.24961 38.6269C3.95123 38.6144 2.99232 37.6231 2.98187 36.3153C2.96307 34.1332 2.94844 31.9501 2.98187 29.767C3.04559 26.0233 5.97035 22.8646 9.71926 22.6943C12.6283 22.5617 15.5489 22.6692 18.4633 22.7267C19.6018 22.7497 20.6255 23.2343 21.5719 23.8527C22.1067 24.2016 22.2435 24.8221 21.9312 25.336C21.861 25.4553 21.767 25.5587 21.6549 25.6399C21.5429 25.7211 21.4152 25.7782 21.28 25.8076C21.1448 25.837 21.005 25.8382 20.8694 25.8109C20.7337 25.7837 20.6051 25.7287 20.4918 25.6494C19.3292 24.9035 18.0559 24.7416 16.7157 24.7584C14.6161 24.7845 12.5155 24.7531 10.416 24.7688C7.85786 24.7876 5.79905 26.3879 5.23917 28.7872C5.14862 29.1911 5.10272 29.6038 5.10232 30.0177C5.0877 32.0024 5.10232 33.987 5.08874 35.9717C5.08874 36.379 5.20574 36.5493 5.62983 36.5253C6.12077 36.4919 6.61902 36.5127 7.20606 36.5127Z" fill="black"/>
<path d="M39.2681 41.3153H40.4944C40.5227 41.2522 40.5421 41.1854 40.5518 41.1168C40.533 39.035 40.5633 36.9511 40.4714 34.8725C40.3868 32.9484 38.5828 31.1121 36.6807 31.0421C34.1738 30.9481 31.6512 30.9815 29.1348 30.9564C28.9211 30.9681 28.707 30.9448 28.5008 30.8875C28.2992 30.8241 28.1236 30.6971 28.0003 30.5256C27.877 30.354 27.8125 30.1471 27.8166 29.9359C27.8166 29.4648 28.0339 29.1002 28.4987 28.9363C28.6875 28.8725 28.8854 28.84 29.0847 28.8402C31.4872 28.8328 33.8896 28.7994 36.2848 28.8402C37.9625 28.8709 39.5634 29.5488 40.7531 30.732C41.9428 31.9153 42.6293 33.5125 42.6691 35.19C42.7182 37.206 42.6973 39.223 42.6796 41.239C42.6681 42.5113 41.7771 43.4243 40.5059 43.4326C37.9561 43.4587 35.4063 43.4483 32.8566 43.4389C32.164 43.4389 31.6961 42.9897 31.6929 42.3943C31.6929 41.7791 32.1734 41.3351 32.8984 41.3299C34.2479 41.3184 35.5985 41.3299 36.9481 41.3299H37.5362V39.7902C37.5362 38.5075 37.5362 37.2238 37.5362 35.9411C37.5326 35.7414 37.547 35.5417 37.579 35.3446C37.6542 34.9268 37.9477 34.7085 38.3447 34.6813C38.7416 34.6542 39.0633 34.8432 39.1876 35.2433C39.2453 35.4514 39.2724 35.6667 39.2681 35.8826C39.2743 37.4995 39.2681 39.1207 39.2681 40.7324V41.3153Z" fill="black"/>
<path d="M19.4979 16.0181C19.478 19.0567 16.9909 21.5156 13.9784 21.4884C10.9429 21.4613 8.48092 18.9815 8.48928 15.9711C8.49971 14.514 9.08415 13.1198 10.1158 12.0909C11.1475 11.0619 12.5433 10.4812 14.0004 10.4746C14.7261 10.475 15.4445 10.619 16.1143 10.8983C16.7842 11.1776 17.3921 11.5866 17.9031 12.1019C18.4141 12.6172 18.8181 13.2285 19.0918 13.9006C19.3655 14.5728 19.5035 15.2924 19.4979 16.0181ZM13.9753 19.3471C14.8679 19.3504 15.7258 19.0011 16.3622 18.3751C16.9986 17.7491 17.3619 16.8971 17.3732 16.0045C17.3724 15.1116 17.019 14.2551 16.3899 13.6215C15.7607 12.9878 14.9068 12.6283 14.0139 12.6212C13.1215 12.6178 12.2638 12.9672 11.6278 13.5933C10.9917 14.2193 10.6288 15.0713 10.6181 15.9638C10.5941 17.7969 12.1212 19.3366 13.9753 19.3471Z" fill="black"/>
<path d="M27.7608 22.7315C27.7545 19.9655 30.0316 17.6643 32.7924 17.6466C35.5531 17.6288 37.8835 19.9446 37.8825 22.7294C37.8825 25.487 35.5845 27.7861 32.8206 27.7871C30.0567 27.7882 27.7691 25.5017 27.7608 22.7315ZM32.8352 25.6458C33.61 25.6395 34.3513 25.3285 34.8986 24.78C35.4459 24.2315 35.7553 23.4896 35.76 22.7148C35.7496 21.9407 35.4369 21.2013 34.8886 20.6548C34.3403 20.1082 33.5999 19.7979 32.8258 19.79C32.438 19.7911 32.0542 19.8686 31.6964 20.018C31.3385 20.1674 31.0136 20.3858 30.7402 20.6608C30.4668 20.9358 30.2502 21.262 30.1028 21.6206C29.9554 21.9793 29.8801 22.3635 29.8812 22.7513C29.8936 23.5255 30.2106 24.2635 30.7636 24.8054C31.3166 25.3472 32.061 25.6492 32.8352 25.6458Z" fill="black"/>
<path d="M22.6684 35.0406C20.3275 35.0312 18.3857 33.0695 18.4254 30.7579C18.4682 28.3972 20.3975 26.5013 22.7269 26.5316C25.0562 26.5619 26.9552 28.4881 26.949 30.7913C26.9383 31.9204 26.4828 32.9997 25.6815 33.7952C24.8802 34.5907 23.7975 35.0381 22.6684 35.0406ZM20.5647 30.7579C20.5563 31.3213 20.7713 31.865 21.1628 32.2703C21.5544 32.6755 22.0904 32.9091 22.6538 32.9201C23.2177 32.9246 23.7603 32.7053 24.1629 32.3104C24.5654 31.9155 24.795 31.3771 24.8014 30.8132C24.81 30.2496 24.5951 29.7054 24.2036 29.2998C23.8121 28.8942 23.2759 28.6602 22.7123 28.6489C22.4323 28.6464 22.1546 28.6991 21.895 28.804C21.6353 28.9088 21.3989 29.0638 21.1992 29.26C20.9995 29.4563 20.8404 29.6899 20.731 29.9476C20.6216 30.2053 20.564 30.4821 20.5615 30.7621L20.5647 30.7579Z" fill="black"/>
</svg>
