<svg width="49" height="48" viewBox="0 0 49 48" fill="none" xmlns="http://www.w3.org/2000/svg">
<path d="M24.9746 0.00500385C26.0182 0.271199 26.653 0.977299 27.1529 1.89836C27.9553 3.37805 28.7776 4.85275 29.6812 6.27246C30.9747 8.29579 29.5724 10.5628 27.5491 10.5816C27.4817 10.5931 27.4152 10.6098 27.3504 10.6316V11.1177C27.3504 12.7424 27.3854 14.367 27.3292 15.9917C27.314 16.4504 27.1865 16.8983 26.9579 17.2962C26.7292 17.694 26.4063 18.0297 26.0177 18.2736C25.629 18.5176 25.1863 18.6624 24.7286 18.6953C24.2709 18.7282 23.8121 18.6483 23.3925 18.4625C22.2552 17.9626 21.6728 17.054 21.6641 15.8055C21.6528 14.2608 21.6641 12.7161 21.6641 11.1702V10.6178L21.0954 10.5253C19.2771 10.2354 18.2548 8.30829 19.1308 6.68988C20.1306 4.83901 21.2167 3.03313 22.2789 1.216C22.6714 0.546143 23.3262 0.216205 24.0411 0L24.9746 0.00500385ZM24.4922 17.2739C24.8555 17.285 25.2088 17.1537 25.4768 16.9081C25.7448 16.6626 25.9063 16.3221 25.9269 15.9592C25.9607 15.3993 25.9432 14.8344 25.9432 14.2746C25.9432 12.8848 25.9432 11.4951 25.9432 10.1067C25.9432 9.39431 26.1631 9.18061 26.8617 9.17436C27.0954 9.17436 27.3317 9.18561 27.5641 9.16436C28.5639 9.07188 29.09 8.12458 28.5989 7.25226C27.6191 5.51345 26.6193 3.78506 25.5995 2.06708C25.0671 1.16726 23.9186 1.17851 23.385 2.08457C22.3802 3.79172 21.3895 5.50679 20.4131 7.22976C19.8969 8.14208 20.4518 9.10437 21.5041 9.16936C21.784 9.18561 22.0665 9.16936 22.3464 9.17686C22.7514 9.18811 22.9801 9.41056 23.04 9.80173C23.0578 9.95686 23.0636 10.1131 23.0575 10.2691C23.0575 12.095 23.0575 13.9209 23.0575 15.748C23.075 16.6503 23.6662 17.2677 24.4922 17.2739Z" fill="black"/>
<path d="M48.4998 24.469C48.2261 25.5075 47.5288 26.1486 46.6064 26.651C45.033 27.5083 43.5071 28.4532 41.9387 29.323C40.394 30.1803 38.5319 29.4255 38.052 27.7783C37.9785 27.4698 37.9205 27.1578 37.8782 26.8435H37.3921C35.7674 26.8435 34.1428 26.8622 32.5181 26.8285C31.936 26.8109 31.3741 26.6107 30.9119 26.2564C30.4497 25.9021 30.1106 25.4115 29.9424 24.8539C29.7687 24.2986 29.7692 23.7034 29.9439 23.1484C30.1187 22.5934 30.4592 22.1052 30.9197 21.7495C31.4571 21.3408 32.1195 21.1306 32.7943 21.1547C34.309 21.1647 35.8224 21.1547 37.3371 21.1547H37.8745C37.907 20.9447 37.9345 20.7647 37.9645 20.5848C38.2569 18.7664 40.1815 17.7429 41.8012 18.6189C43.6521 19.6187 45.4579 20.7047 47.2738 21.7683C47.9424 22.1607 48.2736 22.8118 48.4911 23.5292L48.4998 24.469ZM35.5487 22.5631H32.7855C31.852 22.5781 31.2284 23.1555 31.2309 24.0041C31.2334 24.8526 31.8557 25.4288 32.7955 25.435C33.9041 25.4413 35.0113 25.435 36.1199 25.435C36.9159 25.435 37.712 25.425 38.5081 25.435C39.093 25.4463 39.3192 25.6912 39.3317 26.2761C39.3317 26.541 39.3167 26.8085 39.3417 27.0709C39.4329 28.0395 40.3765 28.5706 41.2251 28.1007C42.9805 27.1184 44.7231 26.1136 46.4527 25.0863C47.3275 24.5665 47.3113 23.4367 46.4452 22.8918C46.0491 22.6418 45.6354 22.4231 45.2305 22.1882C43.9345 21.4383 42.6423 20.6885 41.34 19.9462C40.3277 19.3725 39.3579 19.9462 39.3329 21.1109C39.3329 21.2834 39.3329 21.4546 39.3329 21.6271C39.3267 22.3269 39.1105 22.5494 38.4069 22.5544C37.4596 22.5681 36.501 22.5631 35.5487 22.5631Z" fill="black"/>
<path d="M0.511719 23.5128C0.784163 22.4742 1.48277 21.8344 2.40383 21.332C3.97851 20.4746 5.50444 19.5286 7.07287 18.6588C8.61755 17.8027 10.4797 18.5575 10.9596 20.2047C11.042 20.4859 11.0683 20.7833 11.1333 21.1383H11.6194C13.2441 21.1383 14.8688 21.1195 16.4934 21.1545C17.0756 21.1718 17.6377 21.3717 18.1 21.7261C18.5622 22.0805 18.9013 22.5713 19.0691 23.1291C19.2427 23.6842 19.2421 24.2792 19.0674 24.834C18.8927 25.3888 18.5522 25.8768 18.0919 26.2322C17.5547 26.6415 16.8921 26.8518 16.2172 26.8271C14.7026 26.8183 13.1891 26.8271 11.6744 26.8271H11.137C11.1033 27.0383 11.0758 27.2183 11.0471 27.3982C10.7546 29.2166 8.83 30.2401 7.21034 29.3641C5.35947 28.3643 3.5536 27.2783 1.73772 26.2135C1.06786 25.8223 0.737931 25.1712 0.520475 24.4526L0.511719 23.5128ZM13.4653 25.4186H16.2272C17.162 25.4024 17.7844 24.825 17.7832 23.9777C17.7819 23.1304 17.1583 22.553 16.2185 22.5467C15.11 22.5392 14.0027 22.5467 12.8942 22.5467C12.0981 22.5467 11.302 22.558 10.5059 22.5467C9.92103 22.5355 9.69483 22.2968 9.68233 21.7056C9.68233 21.4407 9.69733 21.1733 9.67234 20.9096C9.58111 19.941 8.63754 19.4099 7.78897 19.881C6.0335 20.8633 4.29094 21.8677 2.5613 22.8942C1.68648 23.414 1.70273 24.5451 2.56881 25.0887C2.96497 25.3387 3.37863 25.5586 3.78355 25.7923C5.07953 26.5422 6.37177 27.292 7.674 28.0343C8.68629 28.608 9.65609 28.0343 9.68108 26.8696C9.68108 26.6984 9.68108 26.5272 9.68108 26.3547C9.68858 25.6548 9.90479 25.4311 10.6084 25.4274C11.5582 25.4149 12.5105 25.4186 13.4653 25.4186Z" fill="black"/>
<path d="M24.0365 47.9957C22.9742 47.7232 22.3393 46.9959 21.8332 46.0623C21.0358 44.5976 20.226 43.1342 19.3337 41.7295C18.0327 39.6924 19.4587 37.4403 21.467 37.4216C21.5343 37.4113 21.6004 37.3946 21.6645 37.3716V36.8867C21.6645 35.262 21.6432 33.6374 21.682 32.0127C21.7058 31.3782 21.9445 30.7706 22.3589 30.2894C22.7732 29.8083 23.3388 29.4822 23.9627 29.3645C25.2537 29.1271 26.5735 29.7844 27.0746 30.9892C27.2449 31.4392 27.3321 31.9164 27.332 32.3976C27.3633 33.8798 27.3433 35.3633 27.3433 36.8467V37.3841L27.9132 37.4753C29.7316 37.7665 30.7538 39.6911 29.8778 41.312C28.878 43.1629 27.7907 44.9675 26.7297 46.7847C26.3373 47.4558 25.6811 47.777 24.9688 48.0007L24.0365 47.9957ZM23.0654 35.0433V37.4778C23.0654 38.7563 23.0067 38.8151 21.7182 38.8276C20.4297 38.8401 19.8598 39.8024 20.4997 40.9184C21.4312 42.5405 22.3664 44.161 23.3054 45.7799C23.9302 46.8659 25.0675 46.8722 25.6961 45.7911C26.6359 44.174 27.5716 42.5539 28.5031 40.9309C29.1454 39.8124 28.5893 38.8413 27.3046 38.8276C27.1958 38.8276 27.0858 38.8276 26.9771 38.8276C26.1273 38.8276 25.9448 38.6413 25.9436 37.774C25.9436 35.9469 25.9436 34.121 25.9436 32.2952C25.9436 31.3516 25.3612 30.7317 24.5139 30.728C23.6666 30.7242 23.0792 31.3466 23.0704 32.2802C23.0617 33.2137 23.0654 34.1223 23.0654 35.0433Z" fill="black"/>
<path d="M0.510267 23.5309C0.782711 22.4923 1.47882 21.8525 2.40488 21.3526C3.88583 20.5527 5.36177 19.7279 6.77898 18.8231C8.80106 17.5284 11.0668 18.9356 11.0856 20.9614C11.0957 21.0278 11.112 21.0931 11.1343 21.1564H11.6205C13.2451 21.1564 14.8698 21.1351 16.4945 21.1726C17.1246 21.1945 17.7288 21.4286 18.2093 21.8369C18.6897 22.2452 19.0182 22.8038 19.1414 23.4222C19.2748 24.0468 19.1911 24.6982 18.9041 25.2688C18.6171 25.8394 18.144 26.295 17.563 26.5603C17.1317 26.7367 16.6705 26.8288 16.2045 26.8314C14.6911 26.8639 13.1764 26.8439 11.6617 26.8439H11.1293C11.0931 27.0726 11.0618 27.2701 11.0294 27.4688C10.7507 29.1335 8.99852 30.142 7.44759 29.5047C7.0057 29.3077 6.58134 29.0736 6.1791 28.8048C6.10001 28.7608 6.0307 28.7011 5.97534 28.6295C5.91999 28.5578 5.87975 28.4757 5.85708 28.3881C5.83441 28.3004 5.82978 28.2091 5.84346 28.1196C5.85714 28.0301 5.88884 27.9444 5.93665 27.8675C5.9803 27.7885 6.03915 27.719 6.10979 27.6629C6.18044 27.6068 6.26149 27.5653 6.34827 27.5406C6.43505 27.516 6.52584 27.5088 6.61542 27.5194C6.705 27.53 6.7916 27.5583 6.87021 27.6025C7.17889 27.7525 7.46259 27.95 7.76753 28.1087C8.6536 28.5698 9.58965 28.0512 9.67339 27.0552C9.69213 26.8227 9.67338 26.5865 9.68088 26.3528C9.68838 25.6817 9.90834 25.448 10.5795 25.4442C12.1566 25.438 13.7338 25.4442 15.311 25.4442C15.6697 25.4442 16.0296 25.4555 16.3883 25.4442C16.7591 25.4387 17.113 25.2877 17.3736 25.0238C17.6342 24.7599 17.7808 24.4042 17.7817 24.0333C17.789 23.8452 17.7581 23.6575 17.6909 23.4817C17.6238 23.3058 17.5218 23.1453 17.391 23.0099C17.2603 22.8745 17.1035 22.7669 16.9301 22.6936C16.7567 22.6204 16.5702 22.5829 16.382 22.5836C14.5549 22.5636 12.7278 22.5761 10.9019 22.5748C9.80711 22.5748 9.68088 22.4498 9.67963 21.3776C9.67963 21.2688 9.67963 21.1589 9.67963 21.0501C9.62839 19.9716 8.66235 19.4105 7.72379 19.9354C6.63527 20.5452 5.56049 21.1851 4.47446 21.81C3.84959 22.1687 3.22472 22.5186 2.61234 22.8898C1.66754 23.4596 1.67503 24.5857 2.62609 25.1555C3.18722 25.493 3.76085 25.8104 4.32448 26.1441C4.77939 26.414 4.91686 26.7802 4.71816 27.1439C4.51945 27.5076 4.09328 27.6163 3.62338 27.3538C3.0385 27.0239 2.46237 26.6815 1.87374 26.354C1.13889 25.9341 0.733975 25.2743 0.499023 24.4857L0.510267 23.5309Z" fill="black"/>
<path d="M13.9727 9.93715C14.965 10.9244 15.9485 11.903 16.9308 12.8828C17.5694 13.5202 17.8669 14.2763 17.6944 15.1798C17.5069 16.1534 16.9258 16.812 15.9897 17.1144C15.5667 17.266 15.109 17.2924 14.6712 17.1907C14.2335 17.089 13.8344 16.8634 13.5215 16.5408C12.5979 15.6535 11.7006 14.7399 10.8008 13.8276C10.6925 13.6907 10.5994 13.5424 10.5234 13.3852C9.74479 14.0551 9.00619 14.31 8.14887 14.0788C7.33403 13.8601 6.74915 13.3589 6.5242 12.5504C6.0343 10.842 5.54191 9.13232 5.14199 7.40143C5.05388 7.01487 5.06632 6.61217 5.17813 6.23178C5.28995 5.8514 5.49739 5.50602 5.78067 5.22863C6.06395 4.95124 6.41362 4.7511 6.79627 4.6473C7.17892 4.54351 7.58178 4.53953 7.96641 4.63575C9.63232 5.04066 11.2895 5.48932 12.9341 5.96922C14.6225 6.46162 15.1924 8.30374 14.1314 9.71845C14.0901 9.77843 14.0427 9.83967 13.9727 9.93715ZM6.48547 6.92402C6.48517 6.97056 6.48935 7.01701 6.49796 7.06274C6.95037 8.76489 7.38028 10.4733 7.87268 12.1642C8.05264 12.7891 8.82623 12.9453 9.33987 12.5291C9.54608 12.3629 9.7148 12.1542 9.916 11.9805C10.2472 11.6893 10.5909 11.6905 10.9246 11.9805C11.0308 12.0717 11.1258 12.1767 11.2245 12.2754C12.2851 13.3352 13.3453 14.3946 14.4051 15.4535C14.725 15.7722 15.0962 15.9247 15.5523 15.7809C15.7497 15.7263 15.9271 15.6159 16.0632 15.4629C16.1993 15.31 16.2884 15.121 16.3197 14.9186C16.4059 14.4775 16.1947 14.14 15.896 13.8376C14.7887 12.7362 13.6848 11.6318 12.5842 10.5245C12.1618 10.0996 12.1668 9.74594 12.5842 9.31353C12.6817 9.21105 12.7842 9.11482 12.8816 9.01359C13.549 8.32123 13.344 7.53765 12.4155 7.2802C11.4157 7.00026 10.3984 6.73906 9.38987 6.46912C8.83373 6.3204 8.28135 6.15043 7.71896 6.02171C7.0241 5.86049 6.48672 6.27041 6.48547 6.92402Z" fill="black"/>
<path d="M10.4378 34.5292C11.3976 33.5694 12.3349 32.5871 13.3247 31.6622C13.691 31.3058 14.1307 31.0337 14.6131 30.8649C15.6929 30.5275 16.8152 31.0286 17.3888 31.9897C17.6747 32.453 17.7973 32.9987 17.737 33.5398C17.6768 34.0809 17.4372 34.5862 17.0564 34.9753C16.1703 35.9001 15.2505 36.7924 14.347 37.6998C14.222 37.8247 14.112 37.9497 13.982 38.0822C14.5507 38.752 14.8144 39.4869 14.5882 40.3467C14.372 41.1628 13.8733 41.7527 13.0672 41.9851C11.3601 42.4788 9.64793 42.9662 7.91828 43.3686C7.52741 43.4596 7.11964 43.4477 6.73469 43.3342C6.34975 43.2208 6.00075 43.0095 5.72173 42.721C5.44271 42.4326 5.24318 42.0768 5.14257 41.6883C5.04195 41.2998 5.04368 40.8918 5.1476 40.5042C5.55252 38.8695 5.99118 37.2436 6.44984 35.6302C6.94973 33.8905 8.80186 33.3032 10.2503 34.4004C10.3003 34.4329 10.3503 34.4667 10.4378 34.5292ZM7.43839 42.0176C7.48533 42.0178 7.5322 42.0137 7.57836 42.0051C9.27926 41.5527 10.9864 41.1203 12.6773 40.6304C13.2609 40.4617 13.4272 39.7356 13.081 39.2344C12.9673 39.0867 12.8419 38.9484 12.7061 38.8208C12.1162 38.2221 12.1162 37.946 12.7185 37.3423C13.7883 36.2713 14.8631 35.204 15.9291 34.128C16.429 33.6281 16.4715 33.0495 16.0828 32.5771C15.6404 32.0409 14.9431 32.0222 14.4007 32.5558C13.4009 33.5419 12.4011 34.5317 11.4213 35.5377C10.7152 36.2625 10.3903 36.645 9.47421 35.5902C9.45314 35.567 9.43015 35.5457 9.40548 35.5265C8.80935 35.0116 8.04825 35.2203 7.8183 35.9726C7.66333 36.48 7.53836 36.9949 7.40089 37.5073C7.11345 38.5746 6.81851 39.6419 6.54107 40.7129C6.34736 41.454 6.74978 42.0226 7.44089 42.0176H7.43839Z" fill="black"/>
<path d="M34.8993 9.77304C33.8021 8.32334 34.3895 6.46498 36.1278 5.97258C37.7525 5.51267 39.3772 5.074 41.0093 4.66909C41.397 4.56516 41.8049 4.56343 42.1934 4.66405C42.5819 4.76466 42.9377 4.9642 43.2262 5.24322C43.5147 5.52224 43.7259 5.87123 43.8394 6.25617C43.9529 6.64112 43.9647 7.0489 43.8737 7.43977C43.4701 9.17067 42.9827 10.8816 42.4903 12.5887C42.2578 13.396 41.6679 13.8947 40.8506 14.1096C39.992 14.3359 39.2559 14.0722 38.5873 13.5035C38.4499 13.6285 38.3249 13.7535 38.2037 13.8684C37.2976 14.772 36.4053 15.6918 35.4805 16.5779C35.0914 16.9587 34.586 17.1983 34.0449 17.2585C33.5038 17.3188 32.9582 17.1962 32.4948 16.9103C31.5313 16.3367 31.0301 15.2144 31.3701 14.1346C31.5387 13.6524 31.8104 13.2127 32.1662 12.8462C33.0922 11.8564 34.0733 10.9191 35.0406 9.95925C34.9706 9.86677 34.9356 9.82178 34.8993 9.77304ZM41.2155 6.0613C40.1445 6.33875 39.0785 6.63369 38.01 6.92113C37.4988 7.0586 36.9827 7.18358 36.4765 7.33854C35.7267 7.5685 35.5155 8.32958 36.0291 8.92571C36.0491 8.9501 36.0709 8.97308 36.0941 8.99445C37.1489 9.91051 36.7665 10.2354 36.0416 10.9415C35.0343 11.9226 34.042 12.9199 33.0597 13.9209C32.5261 14.4633 32.5448 15.1619 33.081 15.6031C33.5521 15.993 34.1332 15.943 34.6319 15.4494C35.7067 14.3833 36.774 13.3098 37.845 12.2388C38.4474 11.6377 38.7198 11.6364 39.3234 12.2275C39.4511 12.3638 39.5899 12.4892 39.7383 12.6025C40.2382 12.9549 40.9643 12.7824 41.1343 12.1988C41.6242 10.5079 42.0554 8.80074 42.509 7.09984C42.5176 7.05368 42.5217 7.00681 42.5215 6.95987C42.5265 6.27126 41.9591 5.86759 41.2155 6.0613Z" fill="black"/>
<path d="M38.425 34.4406C39.0699 34.2082 39.5611 33.9295 40.0797 33.8645C41.2045 33.7233 42.1905 34.3994 42.5079 35.4954C42.9941 37.1726 43.4627 38.856 43.8702 40.5531C43.9658 40.9426 43.9591 41.3503 43.8506 41.7364C43.7421 42.1226 43.5355 42.4741 43.2509 42.7568C42.9664 43.0394 42.6135 43.2437 42.2267 43.3496C41.8398 43.4555 41.4321 43.4596 41.0432 43.3613C39.3628 42.953 37.6918 42.5027 36.0305 42.0103C34.3984 41.5279 33.831 39.6833 34.8495 38.3123C34.9033 38.2399 34.9582 38.1686 35.0382 38.0624C34.0384 37.0626 33.0386 36.0715 32.0463 35.0768C31.4102 34.4356 31.1365 33.6695 31.3252 32.7697C31.4008 32.3352 31.5952 31.9301 31.8868 31.5993C32.1784 31.2684 32.5558 31.0247 32.9774 30.8951C33.8972 30.5802 34.752 30.7589 35.4544 31.4225C36.3742 32.2973 37.254 33.2021 38.1463 34.0982C38.2458 34.2068 38.3389 34.3212 38.425 34.4406ZM42.5229 41.0643C42.5227 41.0106 42.5172 40.957 42.5067 40.9043C42.058 39.2172 41.6319 37.53 41.1445 35.8491C40.9645 35.2242 40.1972 35.0605 39.6798 35.4642C39.596 35.5346 39.5163 35.6097 39.4411 35.6891C38.6825 36.439 38.4938 36.439 37.7289 35.6754C36.6916 34.6368 35.6593 33.5946 34.6133 32.5648C34.0472 32.0049 33.2886 32.0524 32.8724 32.6498C32.545 33.1172 32.6112 33.657 33.0774 34.1282C34.0447 35.1042 35.0195 36.0715 35.9918 37.0426C36.9916 38.0424 36.9916 38.0424 36.0455 39.0884C35.5044 39.6896 35.7193 40.4694 36.5017 40.6956C37.2515 40.9118 38.0014 41.1093 38.7512 41.313C39.5785 41.5367 40.4034 41.7679 41.2357 41.9753C41.9593 42.1515 42.5167 41.7529 42.5229 41.0605V41.0643Z" fill="black"/>
<path d="M35.0271 9.91559C34.4547 9.24573 34.1948 8.50838 34.4235 7.64855C34.6397 6.83247 35.1396 6.24635 35.9482 6.0139C37.6553 5.52275 39.3675 5.03285 41.0971 4.63043C41.4844 4.54047 41.8883 4.55163 42.2701 4.66285C42.6518 4.77406 42.9985 4.9816 43.2769 5.2655C43.5553 5.5494 43.756 5.90013 43.8597 6.28397C43.9633 6.66782 43.9666 7.07189 43.869 7.45735C43.4679 9.1245 43.018 10.7804 42.5368 12.4276C42.0444 14.116 40.1985 14.6896 38.7876 13.6311L38.5376 13.4424C38.2289 13.7748 37.9315 14.116 37.6128 14.4334C37.2491 14.7983 36.843 14.8233 36.5418 14.5284C36.2406 14.2335 36.2506 13.8298 36.613 13.4574C37.0817 12.9762 37.5553 12.4988 38.0377 12.0327C38.4127 11.6727 38.7688 11.6765 39.15 12.0239C39.3225 12.1826 39.4749 12.3638 39.6499 12.5138C40.191 12.9662 40.9759 12.7812 41.1683 12.1076C41.6395 10.458 42.0856 8.80082 42.4943 7.13616C42.673 6.41006 42.0969 5.83518 41.3695 6.01139C39.7049 6.42006 38.049 6.86746 36.3993 7.33612C35.727 7.52733 35.5395 8.31467 35.9919 8.85331C36.1169 9.00952 36.2768 9.14325 36.4168 9.28947C36.8505 9.74187 36.8542 10.0931 36.4168 10.5392C35.3045 11.664 34.1798 12.7637 33.0725 13.8885C32.4014 14.5709 32.6476 15.6194 33.5399 15.7794C33.8361 15.8331 34.2135 15.7031 34.4885 15.5432C34.9721 15.2632 35.3395 15.2345 35.6057 15.5819C35.8719 15.9294 35.7832 16.3193 35.3558 16.6742C34.873 17.0703 34.2595 17.2714 33.6359 17.2379C33.0124 17.2044 32.4239 16.9386 31.9865 16.493C31.5317 16.0415 31.2711 15.4304 31.2601 14.7896C31.2492 14.1489 31.4887 13.5292 31.9277 13.0624C32.8288 12.1089 33.7761 11.1991 34.7009 10.2693C34.8096 10.1543 34.9121 10.0393 35.0271 9.91559Z" fill="black"/>
<path d="M24.5371 20.1467C25.0455 20.1493 25.5483 20.2528 26.0164 20.4511C26.4845 20.6495 26.9085 20.9389 27.2639 21.3024C27.6193 21.6659 27.899 22.0964 28.0867 22.5689C28.2744 23.0413 28.3665 23.5463 28.3576 24.0547C28.352 24.5591 28.2472 25.0575 28.0489 25.5214C27.8507 25.9853 27.563 26.4056 27.2023 26.7583C26.8416 27.111 26.415 27.3892 25.9467 27.577C25.4785 27.7647 24.9778 27.8584 24.4734 27.8526C23.965 27.8499 23.4623 27.7463 22.9943 27.5478C22.5263 27.3494 22.1023 27.06 21.747 26.6965C21.3916 26.333 21.1119 25.9026 20.9241 25.4303C20.7363 24.9579 20.6441 24.4529 20.6529 23.9447C20.6648 22.9261 21.0806 21.9539 21.8089 21.2417C22.5372 20.5296 23.5185 20.1357 24.5371 20.1467ZM26.9516 24.0084C26.9549 23.6885 26.895 23.3711 26.7753 23.0745C26.6556 22.7778 26.4785 22.5077 26.2542 22.2796C26.0299 22.0516 25.7627 21.8701 25.468 21.7455C25.1734 21.621 24.857 21.5559 24.5371 21.5539C24.2134 21.5476 23.8917 21.606 23.5909 21.7257C23.29 21.8454 23.0162 22.024 22.7853 22.251C22.5544 22.4781 22.3713 22.7489 22.2465 23.0477C22.1218 23.3465 22.058 23.6671 22.0589 23.9909C22.0536 24.6367 22.3049 25.2582 22.7577 25.7187C23.2105 26.1792 23.8276 26.4411 24.4734 26.4467C24.7971 26.4526 25.1188 26.394 25.4195 26.2741C25.7203 26.1541 25.9941 25.9754 26.2249 25.7483C26.4557 25.5213 26.6389 25.2504 26.7636 24.9516C26.8884 24.6529 26.9523 24.3322 26.9516 24.0084Z" fill="black"/>
</svg>
