<svg width="43" height="48" viewBox="0 0 43 48" fill="none" xmlns="http://www.w3.org/2000/svg">
<path d="M19.2476 48C18.5357 47.939 17.8237 47.8757 17.1107 47.8194C13.7905 47.5555 10.5207 47.0207 7.36 45.9359C5.50697 45.3002 3.7325 44.5062 2.24539 43.1868C1.49714 42.5218 0.915446 41.7384 0.62459 40.7708C0.0897917 38.9882 0.697297 37.5175 1.93695 36.2591C3.17661 35.0006 4.75168 34.2125 6.39361 33.5757C8.56564 32.7313 10.8186 32.1847 13.1138 31.7989C13.217 31.7825 13.3178 31.7485 13.4562 31.7133C13.3706 31.562 13.3096 31.4412 13.2369 31.3274C11.6232 28.8059 9.97885 26.3031 8.40026 23.7593C6.35372 20.4626 5.5996 16.8667 6.28921 13.0422C7.28023 7.54412 10.3542 3.54251 15.4664 1.34233C20.7358 -0.922359 25.8469 -0.299598 30.5346 3.04524C33.7833 5.35918 35.804 8.54921 36.6109 12.4453C37.4448 16.4633 36.7786 20.2655 34.5984 23.7605C33.0139 26.3008 31.3743 28.8035 29.7617 31.3286C29.689 31.4459 29.628 31.5631 29.5412 31.7156C30.4795 31.9068 31.3778 32.0675 32.268 32.2762C34.8106 32.8708 37.304 33.6062 39.5265 35.0358C40.7509 35.8239 41.8088 36.7704 42.3154 38.2024C42.8221 39.6344 42.55 40.9385 41.6927 42.1407C40.8354 43.3428 39.6086 44.1462 38.3068 44.8064C35.6375 46.1622 32.77 46.8952 29.8298 47.3245C27.9345 47.6012 26.0181 47.7267 24.1112 47.9214C23.9575 47.9378 23.8062 47.973 23.6538 47.9988L19.2476 48ZM21.4864 39.0527C21.6225 38.8498 21.721 38.7114 21.8101 38.5707C25.1737 33.3001 28.5233 28.0154 31.9056 22.7613C34.5855 18.5943 34.9315 14.2526 32.7266 9.83929C30.6976 5.78608 27.3106 3.42522 22.7906 2.96783C18.0184 2.48581 14.1564 4.30366 11.2818 8.13755C8.25015 12.1802 8.06017 18.036 10.7729 22.2734C13.1599 26.0037 15.5446 29.734 17.927 33.4643C19.1021 35.3032 20.2714 37.1445 21.4864 39.0527ZM21.4794 45.258C23.2386 45.1407 24.9978 45.0692 26.757 44.9061C29.8063 44.6317 32.804 44.0523 35.6703 42.9218C36.9768 42.4057 38.2563 41.8135 39.2169 40.731C39.9393 39.9182 39.9288 39.2216 39.2169 38.4065C38.5448 37.6406 37.6922 37.1246 36.788 36.6907C34.0296 35.3642 31.0718 34.7708 28.0659 34.3708C27.9486 34.3556 27.7633 34.4881 27.6835 34.6054C27.3317 35.1191 27.0045 35.6504 26.669 36.177C25.3805 38.2012 24.0904 40.2263 22.7988 42.2521C22.4305 42.8385 21.9462 43.1493 21.239 43.0367C20.7311 42.9558 20.4297 42.6133 20.1705 42.2052C18.5826 39.7032 16.993 37.2043 15.4019 34.7086C15.2377 34.4482 15.097 34.304 14.7404 34.3826C14.0884 34.5268 13.4152 34.5796 12.7572 34.7016C10.2826 35.159 7.84554 35.7571 5.63715 37.0143C4.93896 37.4207 4.29872 37.9194 3.7337 38.4968C3.04761 39.1887 3.08396 39.9311 3.7337 40.6629C4.03178 41.0018 4.36827 41.3049 4.73642 41.566C6.21064 42.5992 7.8819 43.2009 9.59419 43.6876C13.4738 44.7994 17.4543 45.163 21.4794 45.258Z" fill="black"/>
<path d="M28.517 15.5895C28.5148 17.4529 27.7745 19.2396 26.4581 20.5584C25.1417 21.8772 23.3565 22.6208 21.4931 22.6264C19.6304 22.6195 17.8462 21.8755 16.5306 20.5568C15.215 19.2381 14.4751 17.4522 14.4727 15.5895C14.4825 13.7353 15.223 11.9597 16.5335 10.6478C17.844 9.33601 19.6189 8.59374 21.4731 8.58203C23.3349 8.58231 25.1209 9.31955 26.4408 10.6326C27.7606 11.9457 28.5071 13.7278 28.517 15.5895ZM25.7023 15.5895C25.691 14.478 25.2443 13.4153 24.4582 12.6294C23.6721 11.8435 22.6093 11.3972 21.4978 11.3862C20.3861 11.3944 19.322 11.838 18.5337 12.6219C17.7455 13.4058 17.2959 14.4674 17.2815 15.579C17.2651 17.88 19.2108 19.8245 21.5107 19.8069C23.8105 19.7894 25.7116 17.8812 25.7046 15.5931L25.7023 15.5895Z" fill="black"/>
</svg>
