<svg width="49" height="48" viewBox="0 0 49 48" fill="none" xmlns="http://www.w3.org/2000/svg">
<path d="M17.6732 47.9988H1.91422C0.793883 47.9988 0.457383 47.648 0.503031 46.5303C0.793874 39.5553 5.83341 33.8923 12.7302 32.8163C13.4058 32.7198 14.0875 32.6727 14.77 32.6755C16.8568 32.6598 18.9344 32.6429 21.0146 32.6833C27.7366 32.8137 33.6865 38.0789 34.6517 44.737C34.747 45.3963 34.8079 46.0602 34.8342 46.7259C34.8695 47.6389 34.4912 47.9975 33.5783 47.9975C28.277 48.0001 22.9753 48.0006 17.6732 47.9988ZM2.56633 45.9525H32.8179C32.741 45.4673 32.6875 45.0187 32.6001 44.5739C31.6545 39.3857 27.0023 35.1118 21.7528 34.7505C19.4378 34.5914 17.1059 34.6527 14.7817 34.6592C8.41839 34.6774 3.13889 39.5513 2.56633 45.9525Z" fill="black"/>
<path d="M31.1339 17.1747C30.7113 17.1747 30.3709 17.1747 30.0305 17.1747C28.3115 17.1604 26.9916 15.9475 26.9734 14.2233C26.936 10.4653 26.936 6.70786 26.9734 2.95081C26.9929 1.23445 28.3193 0.00978172 30.0448 0.00717326C35.1678 -0.00239109 40.2917 -0.00239109 45.4165 0.00717326C47.1746 0.00717326 48.4762 1.29704 48.4853 3.06036C48.5062 6.75307 48.5062 10.4453 48.4853 14.1372C48.4749 15.9031 47.1693 17.1682 45.4086 17.1734C43.1315 17.1813 40.8543 17.1734 38.5771 17.1891C38.3127 17.2002 38.0609 17.3046 37.8663 17.4838C36.2738 19.0489 34.7048 20.6244 33.128 22.1999C33.0354 22.2925 32.9441 22.3851 32.8502 22.4738C32.7082 22.6226 32.523 22.723 32.3208 22.7609C32.1186 22.7989 31.9097 22.7723 31.7234 22.6851C31.3073 22.5064 31.1286 22.1556 31.1299 21.7069C31.1299 20.3897 31.1299 19.0719 31.1299 17.7538L31.1339 17.1747ZM33.1332 19.3684C34.4088 18.0942 35.5813 16.9478 36.7212 15.7675C36.8993 15.5704 37.1191 15.4155 37.3645 15.3137C37.6099 15.212 37.8748 15.1661 38.1402 15.1793C40.5139 15.204 42.8889 15.1923 45.2626 15.1884C46.1116 15.1884 46.4768 14.8375 46.4781 14.0146C46.4781 10.388 46.4781 6.76177 46.4781 3.13602C46.4781 2.38087 46.1181 2.01438 45.3799 2.01308C40.2743 2.01308 35.1683 2.01308 30.0618 2.01308C29.3484 2.01308 28.978 2.38608 28.978 3.1008C28.9728 6.75873 28.9728 10.4175 28.978 14.0772C28.978 14.7776 29.3575 15.1584 30.0631 15.1793C30.6317 15.1962 31.2017 15.1793 31.7703 15.1793C32.8359 15.1793 33.1319 15.4766 33.1345 16.5409C33.1345 17.4408 33.1332 18.3303 33.1332 19.3684Z" fill="black"/>
<path d="M27.2114 18.9638C26.8931 23.1817 25.2902 26.84 21.8392 29.5137C19.1669 31.5848 16.1476 31.5639 13.4739 29.4928C10.4298 27.1348 8.76175 23.9394 8.27657 20.1598C7.80575 16.4897 9.01476 13.3895 11.9519 11.1189C17.6735 6.6923 25.7963 10.0494 27.0314 17.1887C27.1279 17.7469 27.1488 18.3182 27.2114 18.9638ZM25.2237 18.673C25.1272 18.1174 25.0607 17.3492 24.8546 16.6214C23.8856 13.203 20.5324 10.8293 17.1832 11.1436C13.4531 11.501 10.5237 14.2868 10.2446 17.9569C9.95118 21.824 11.4184 25.0754 14.2877 27.6187C16.5154 29.5906 19.0234 29.502 21.2276 27.5C23.7578 25.2058 24.9668 22.2635 25.2237 18.673Z" fill="black"/>
<path d="M36.7195 8.89676C36.7195 8.63592 36.7195 8.37507 36.7195 8.11422C36.7273 7.31212 36.9803 7.01998 37.7798 6.87782C38.4828 6.74739 38.8714 6.20223 38.681 5.59316C38.6299 5.38558 38.5106 5.20117 38.3423 5.06946C38.1739 4.93774 37.9662 4.86635 37.7524 4.86671C37.5312 4.85734 37.3135 4.92388 37.1353 5.0553C36.9572 5.18673 36.8293 5.37513 36.773 5.58924C36.7438 5.69888 36.7224 5.81046 36.7091 5.92313C36.6165 6.54394 36.1873 6.90521 35.6174 6.84913C35.0709 6.79435 34.7292 6.3757 34.7344 5.76271C34.7575 5.07499 35.0164 4.4161 35.4675 3.89654C35.9187 3.37698 36.5348 3.02834 37.2125 2.90906C38.7449 2.6756 40.1587 3.53769 40.6035 4.97626C40.8165 5.64914 40.7833 6.37587 40.5097 7.0265C40.2361 7.67713 39.74 8.20924 39.1101 8.52767C38.8089 8.68157 38.7111 8.8472 38.7384 9.15761C38.7567 9.40116 38.7567 9.64574 38.7384 9.88929C38.7019 10.5049 38.2846 10.9235 37.7264 10.9183C37.1681 10.9131 36.7743 10.5101 36.7364 9.91798C36.713 9.57758 36.7364 9.23587 36.7364 8.89417L36.7195 8.89676Z" fill="black"/>
<path d="M37.7429 11.4962C38.3233 11.504 38.7485 11.9735 38.7328 12.5917C38.7185 13.1813 38.2855 13.6351 37.7364 13.6429C37.1873 13.6508 36.7204 13.1682 36.7217 12.5604C36.723 11.9527 37.1573 11.4884 37.7429 11.4962Z" fill="black"/>
</svg>
