<svg width="179" height="40" viewBox="0 0 179 40" fill="none" xmlns="http://www.w3.org/2000/svg">
<path fill-rule="evenodd" clip-rule="evenodd" d="M18.5502 0C28.7982 0 37.1004 8.9511 37.1004 20C37.1004 31.0489 28.7982 40 18.5502 40C8.30223 40 0 31.0489 0 20C0 8.9511 8.30223 0 18.5502 0Z" fill="white"/>
<path fill-rule="evenodd" clip-rule="evenodd" d="M36.0481 19.3353C36.0481 19.0442 35.9789 18.8202 35.8335 18.6709C35.6881 18.5141 35.4249 18.4395 35.0372 18.4395H33.7631C33.3754 18.4395 33.1122 18.5141 32.9599 18.6634C32.8076 18.8127 32.7383 19.0367 32.7383 19.3353V21.56H33.6177V19.6414C33.6177 19.4846 33.6523 19.3652 33.7216 19.2756C33.7908 19.186 33.9362 19.1487 34.1509 19.1487H34.6425C34.871 19.1487 35.0233 19.186 35.0857 19.2681C35.1549 19.3502 35.1826 19.4697 35.1826 19.6414V21.56H36.0551V19.3353H36.0481ZM30.1486 20.3431H29.8994C29.8994 20.5074 29.9409 20.6343 30.0101 20.7164C30.0794 20.806 30.2248 20.8433 30.4394 20.8433H32.3436V21.5526H30.0517C29.6639 21.5526 29.4008 21.4779 29.2485 21.3286C29.0961 21.1793 29.0269 20.9553 29.0269 20.6567V19.3353C29.0269 19.0367 29.1031 18.8127 29.2485 18.6634C29.4008 18.5141 29.6639 18.4395 30.0517 18.4395H32.3436V19.1487H30.4394C30.2248 19.1487 30.0863 19.1935 30.0101 19.2756C29.9409 19.3652 29.8994 19.4772 29.8994 19.6339H32.3436V20.3431H30.1486ZM26.5272 20.485V21.56H27.3928V20.485H27.6282C28.0159 20.485 28.286 20.4103 28.4245 20.2536C28.5699 20.0968 28.6391 19.8803 28.6391 19.5891V18.4469H27.7597V19.395C27.7597 19.4921 27.7251 19.5817 27.6628 19.6638C27.6005 19.7459 27.4482 19.7832 27.2197 19.7832H26.735C26.5064 19.7832 26.361 19.7459 26.2918 19.6638C26.2226 19.5817 26.1949 19.4921 26.1949 19.395V18.4469H25.3155V19.5891C25.3155 19.8803 25.3847 20.1043 25.5301 20.2536C25.6755 20.4103 25.9387 20.485 26.3264 20.485H26.5134H26.5272ZM24.9416 20.6642C24.9416 20.9553 24.8723 21.1793 24.7269 21.3286C24.5815 21.4854 24.3184 21.56 23.9306 21.56H22.6565C22.2688 21.56 22.0057 21.4854 21.8533 21.3361C21.701 21.1867 21.6317 20.9628 21.6317 20.6642V18.4395H22.5111V20.3581C22.5111 20.5149 22.5458 20.6343 22.615 20.7239C22.6842 20.8135 22.8296 20.8508 23.0443 20.8508H23.5359C23.7644 20.8508 23.9168 20.8135 23.9791 20.7314C24.0483 20.6492 24.076 20.5298 24.076 20.3581V18.4395H24.9485V20.6642H24.9416ZM21.2371 19.828H20.3715V20.8508H19.3398C19.1251 20.8508 18.9867 20.806 18.9105 20.7239C18.8413 20.6343 18.8066 20.5149 18.8066 20.3581V19.6489C18.8066 19.4921 18.8413 19.3726 18.9105 19.2831C18.9797 19.1935 19.1251 19.1561 19.3398 19.1561H21.244V18.4469H18.959C18.5712 18.4469 18.3081 18.5216 18.1557 18.6709C18.0034 18.8202 17.9342 19.0442 17.9342 19.3428V20.6642C17.9342 20.9628 18.0103 21.1867 18.1557 21.3361C18.3081 21.4854 18.5712 21.56 18.959 21.56H21.244V19.828H21.2371ZM17.5326 19.3353C17.5326 19.0442 17.4633 18.8202 17.3179 18.6709C17.1725 18.5141 16.9094 18.4395 16.5216 18.4395H15.2475C14.8598 18.4395 14.5967 18.5141 14.4443 18.6634C14.292 18.8127 14.2227 19.0367 14.2227 19.3353V21.56H15.1021V19.6414C15.1021 19.4846 15.1368 19.3652 15.206 19.2756C15.2752 19.186 15.4206 19.1487 15.6353 19.1487H16.1269C16.3554 19.1487 16.5078 19.186 16.5701 19.2681C16.6393 19.3502 16.667 19.4697 16.667 19.6414V21.56H17.5395V19.3353H17.5326ZM11.0653 18.4395H9.46575C9.07799 18.4395 8.81487 18.5141 8.66254 18.6634C8.5102 18.8127 8.44096 19.0367 8.44096 19.3353V21.56H9.32034V19.6414C9.32034 19.4846 9.35497 19.3652 9.42421 19.2756C9.49345 19.186 9.63886 19.1487 9.85351 19.1487H10.1028V21.56H10.9891V19.1487H11.2661C11.4946 19.1487 11.6469 19.186 11.7092 19.2681C11.7785 19.3502 11.8062 19.4697 11.8062 19.6414V21.56H12.6786V19.3353C12.6786 19.0442 12.6094 18.8202 12.464 18.6709C12.3186 18.5141 12.0554 18.4395 11.6677 18.4395H11.0653ZM6.73758 19.6339H7.18074C7.18074 19.4846 7.13919 19.3652 7.06995 19.2756C7.00071 19.1935 6.85529 19.1487 6.64064 19.1487H6.14902C5.93436 19.1487 5.79588 19.1935 5.71971 19.2756C5.65047 19.3652 5.60892 19.4772 5.60892 19.6339H6.73758ZM6.93146 20.3431H5.60892V21.56H4.74338V20.6642V19.3428C4.74338 19.0442 4.81955 18.8127 4.96496 18.6709C5.1173 18.5216 5.38042 18.4469 5.76818 18.4469H7.0284C7.41616 18.4469 7.67929 18.5216 7.83162 18.6709C7.98396 18.8202 8.0532 19.0442 8.0532 19.3428V21.5675H7.18074V20.3506H6.93146V20.3431ZM2.23679 19.1487H1.05273V18.4395H4.36255V19.1487H3.11617V21.56H2.25064V19.1487H2.23679ZM1.36433 23.8146C2.99846 32.4297 10.0682 38.9098 18.5435 38.9098C27.0188 38.9098 34.4971 32.049 35.8542 23.0606H35.7989C34.4902 29.9512 28.833 35.1322 22.0541 35.1322C15.2752 35.1322 9.88814 30.1901 8.41326 23.5458C8.35094 23.2621 8.11552 23.0606 7.84547 23.0606H1.94597C1.76594 23.0606 1.60668 23.1427 1.49589 23.292C1.37818 23.4413 1.33663 23.628 1.37818 23.8146H1.36433Z" fill="#231F20"/>
<path fill-rule="evenodd" clip-rule="evenodd" d="M32.4193 25.1137H31.8446V23.0533H32.4193V25.1137ZM31.4153 24.524C31.4153 24.7181 31.3668 24.8599 31.2768 24.9644C31.1798 25.0689 31.0067 25.1137 30.7505 25.1137H29.9058C29.6496 25.1137 29.4764 25.0615 29.3726 24.9644C29.2756 24.8674 29.2272 24.7181 29.2272 24.5165V23.0533H29.8088V24.3149C29.8088 24.4194 29.8296 24.5016 29.8781 24.5538C29.9265 24.6135 30.0165 24.6359 30.162 24.6359H30.4874C30.6397 24.6359 30.7367 24.6135 30.7782 24.5613C30.8198 24.509 30.8475 24.4269 30.8475 24.3149V23.0533H31.4222V24.5165L31.4153 24.524ZM27.1914 24.3149H28.2232V25.1137H28.8048V23.0533H28.2232V23.8446H27.1914V23.0533H26.6167V23.643V24.5165V25.1063H27.1914V24.3075V24.3149ZM26.1874 24.7405C26.1666 24.83 26.1182 24.9196 26.042 24.9943C25.9658 25.0764 25.855 25.1137 25.7166 25.1137H23.8955V24.6434H25.405C25.4534 24.6434 25.4742 24.6285 25.4604 24.5911C25.4534 24.5613 25.4396 24.5389 25.4257 24.5314L24.1378 24.0163C23.9786 23.9566 23.8955 23.8371 23.8955 23.658C23.8955 23.5758 23.8955 23.5161 23.9093 23.4863C23.9301 23.4489 23.9439 23.3967 23.9578 23.3295C23.9716 23.2623 24.0409 23.2026 24.1586 23.1428C24.2763 23.0831 24.4148 23.0533 24.5741 23.0533H26.1874V23.5385H24.5741C24.5394 23.5385 24.5187 23.5609 24.5117 23.6057C24.5117 23.6356 24.5187 23.6505 24.5256 23.6505L25.9589 24.2328C26.0559 24.2701 26.1182 24.3448 26.1459 24.4493C26.1805 24.5538 26.1874 24.6509 26.1805 24.7405H26.1874ZM22.7807 23.979H22.2059V24.6509H21.5274C21.3889 24.6509 21.2919 24.621 21.2435 24.5688C21.195 24.509 21.1742 24.4344 21.1742 24.3299V23.8595C21.1742 23.755 21.195 23.6729 21.2435 23.6206C21.2919 23.5609 21.3819 23.5385 21.5274 23.5385H22.7807V23.0682H21.2712C21.015 23.0682 20.8419 23.1205 20.738 23.2175C20.6411 23.3146 20.5926 23.4639 20.5926 23.6654V24.5389C20.5926 24.7405 20.6411 24.8823 20.738 24.9868C20.8349 25.0839 21.015 25.1361 21.2712 25.1361H22.7807V23.9939V23.979ZM20.1702 23.658C20.1702 23.4639 20.1217 23.322 20.0317 23.2175C19.9348 23.113 19.7617 23.0682 19.5055 23.0682H18.6607C18.4045 23.0682 18.2314 23.1205 18.1275 23.2175C18.0306 23.3146 17.9821 23.4639 17.9821 23.6654V25.1287H18.5638V23.867C18.5638 23.7625 18.5845 23.6804 18.633 23.6281C18.6815 23.5684 18.7715 23.546 18.9169 23.546H19.2423C19.3947 23.546 19.4916 23.5684 19.5332 23.6206C19.5747 23.6729 19.6024 23.755 19.6024 23.867V25.1287H20.1771V23.6654L20.1702 23.658ZM16.1056 24.3224H15.9395C15.9395 24.4344 15.9671 24.5165 16.0156 24.5688C16.0641 24.6285 16.1541 24.6509 16.2995 24.6509H17.5597V25.1212H16.0502C15.794 25.1212 15.6209 25.0689 15.5171 24.9719C15.4201 24.8748 15.3717 24.7255 15.3717 24.524V23.6505C15.3717 23.4489 15.4201 23.3071 15.5171 23.2026C15.614 23.1055 15.794 23.0533 16.0502 23.0533H17.5597V23.5236H16.2995C16.161 23.5236 16.0641 23.5534 16.0156 23.6057C15.9671 23.6654 15.9464 23.7401 15.9395 23.8371H17.5528V24.3075H16.1056V24.3224ZM13.4952 24.3224H13.329V25.1212H12.7543V24.5314V23.658C12.7543 23.4564 12.8027 23.3146 12.8997 23.21C12.9966 23.113 13.1767 23.0607 13.4329 23.0607H14.9424V23.5311H13.6821C13.5436 23.5311 13.4467 23.5609 13.3982 23.6132C13.3498 23.6729 13.329 23.7475 13.3221 23.8446H14.9354V24.3149H13.4883L13.4952 24.3224ZM18.5499 1.08984C27.0253 1.08984 34.095 7.56987 35.7291 16.185C35.7637 16.3791 35.7291 16.5583 35.6114 16.7076C35.4937 16.8569 35.3413 16.939 35.1613 16.939H29.2618C28.9848 16.939 28.7563 16.7449 28.694 16.4538C27.2191 9.80952 21.6658 4.86737 15.0531 4.86737C8.44044 4.86737 2.61018 10.0559 1.30149 16.9465H1.24609C2.59633 7.95808 9.83222 1.08984 18.5499 1.08984Z" fill="#EC1C24"/>
<path d="M44.3502 28.4145H43.3877L43.4362 28.0039H45.8043L45.7558 28.4145H44.7449L44.2671 32.2742H43.8724L44.3502 28.4145Z" fill="white"/>
<path d="M46.261 27.8984H46.6349L46.4202 29.5931C46.718 29.2273 47.0573 29.0257 47.4589 29.0257C48.0128 29.0257 48.4629 29.4214 48.4629 30.1157C48.4629 30.3994 48.4283 30.6084 48.4006 30.8249L48.2205 32.2732H47.8536L48.0336 30.8249C48.0682 30.5785 48.089 30.3396 48.089 30.1381C48.089 29.6827 47.8189 29.399 47.4104 29.399C47.0434 29.399 46.6972 29.6006 46.5102 29.9365C46.3787 30.1679 46.3094 30.5039 46.2541 30.907L46.0809 32.2732H45.707L46.261 27.8984Z" fill="white"/>
<path d="M49.252 31.1679C49.252 31.041 49.2727 30.72 49.3212 30.3094L49.4735 29.1074H49.8474L49.6813 30.4288C49.6397 30.7648 49.612 30.9962 49.612 31.1455C49.612 31.6457 49.9582 31.9667 50.4291 31.9667C50.7199 31.9667 50.9969 31.8249 51.1561 31.6009C51.3015 31.3919 51.3431 31.153 51.4054 30.6826L51.6131 29.1074H51.9801L51.8278 30.3019C51.7378 31.0037 51.6616 31.5113 51.4608 31.8099C51.2392 32.1384 50.8515 32.34 50.4152 32.34C49.7297 32.34 49.2589 31.8472 49.2589 31.1604L49.252 31.1679Z" fill="white"/>
<path d="M55.7543 29.1152L55.3527 32.2731H54.9719L55.0411 31.7953C54.7018 32.1611 54.321 32.3552 53.8778 32.3552C53.0815 32.3552 52.5068 31.743 52.5068 30.8696C52.5068 29.8244 53.3101 29.0331 54.1825 29.0331C54.6949 29.0331 55.0411 29.2645 55.2973 29.7124L55.3666 29.1152H55.7613H55.7543ZM55.2281 30.5187C55.2281 29.8393 54.7849 29.4063 54.1894 29.4063C53.4832 29.4063 52.8807 30.026 52.8807 30.8621C52.8807 31.5489 53.317 31.9819 53.9194 31.9819C54.6949 31.9819 55.2281 31.3399 55.2281 30.5187ZM53.4278 33.154C53.4416 32.9674 53.6009 32.8181 53.7671 32.8181C53.9332 32.8181 54.0717 32.9674 54.051 33.154C54.051 33.3406 53.8917 33.4899 53.7186 33.4899C53.5455 33.4899 53.4208 33.3332 53.4278 33.154ZM53.9332 28.6001H53.4624L54.2864 27.8535H54.7226L55.3596 28.6001H54.9303L54.4803 28.1596L53.9332 28.6001Z" fill="white"/>
<path d="M56.6272 29.1153H56.9873L56.9319 29.6006C57.2296 29.2273 57.5689 29.0332 57.9705 29.0332C58.5522 29.0332 58.9745 29.4438 58.9745 30.1232C58.9745 30.4292 58.933 30.6681 58.9122 30.8249L58.7322 32.2732H58.3652L58.5452 30.8249C58.566 30.6308 58.6006 30.3994 58.6006 30.1456C58.6006 29.6976 58.3444 29.4065 57.929 29.4065C57.562 29.4065 57.2158 29.6006 57.0219 29.9291C56.8834 30.1605 56.8211 30.4964 56.7657 30.907L56.5926 32.2732H56.2256L56.6341 29.1153H56.6272Z" fill="white"/>
<path d="M62.1592 29.9968L64.0218 32.2663H63.5164L61.8338 30.2059L61.5568 32.2663H61.1621L61.723 27.9961H62.1177L61.8892 29.7281L63.7449 27.9961H64.3196L62.1661 29.9968H62.1592Z" fill="white"/>
<path d="M64.9914 27.8984H65.3654L65.1507 29.5931C65.4484 29.2273 65.7877 29.0257 66.1893 29.0257C66.7433 29.0257 67.1934 29.4214 67.1934 30.1157C67.1934 30.3994 67.1587 30.6084 67.1311 30.8249L66.951 32.2732H66.584L66.7641 30.8249C66.7987 30.5785 66.8195 30.3396 66.8195 30.1381C66.8195 29.6827 66.5494 29.399 66.1409 29.399C65.7739 29.399 65.4277 29.6006 65.2407 29.9365C65.1092 30.1679 65.0399 30.5039 64.9845 30.907L64.8114 32.2732H64.4375L64.9914 27.8984Z" fill="white"/>
<path d="M67.8301 30.8776C67.8301 29.8399 68.571 29.0336 69.5127 29.0336C69.6789 29.0336 69.8312 29.0635 69.9766 29.1158C70.122 29.1158 70.4128 29.0187 70.4682 28.5857H70.856C70.8075 28.9814 70.5998 29.2203 70.3713 29.3472C70.676 29.6085 70.8698 30.034 70.8698 30.5417C70.8698 31.5346 70.1913 32.3483 69.1872 32.3483C68.3771 32.3483 67.837 31.7212 67.837 30.8701L67.8301 30.8776ZM70.489 30.5417C70.489 29.8623 70.0666 29.4144 69.4988 29.4144C68.7787 29.4144 68.204 30.0191 68.204 30.8627C68.204 31.5196 68.6125 31.9825 69.2288 31.9825C69.9835 31.9825 70.489 31.3255 70.489 30.5417ZM69.7204 27.4883C70.0736 27.4883 70.2813 27.6973 70.2467 28.0034C70.2259 28.2124 70.0597 28.4364 69.8451 28.5932H69.4919C69.755 28.4289 69.9004 28.2572 69.9212 28.0855C69.942 27.8989 69.8312 27.7869 69.6096 27.7869C69.5404 27.7869 69.4642 27.7869 69.4227 27.8018L69.4919 27.5256C69.5819 27.5107 69.6442 27.5032 69.7204 27.5032V27.4883Z" fill="white"/>
<path d="M71.8049 29.1151H72.165L71.7703 32.2729H71.4033L71.8049 29.1151ZM71.7911 28.1445C71.8049 27.9579 71.9642 27.8086 72.1304 27.8086C72.2966 27.8086 72.435 27.9579 72.4143 28.1445C72.4143 28.3312 72.255 28.4805 72.0819 28.4805C71.9088 28.4805 71.7842 28.3237 71.7911 28.1445Z" fill="white"/>
<path d="M74.3321 28.0039H74.7337L75.7239 31.3858L77.5588 28.0039H77.9881L75.6685 32.2742H75.5716L74.3252 28.0039H74.3321Z" fill="white"/>
<path d="M81.2358 29.1153L80.8342 32.2732H80.4533L80.5226 31.7954C80.1833 32.1612 79.8024 32.3553 79.3593 32.3553C78.563 32.3553 77.9883 31.7432 77.9883 30.8697C77.9883 29.8245 78.7915 29.0332 79.664 29.0332C80.1764 29.0332 80.5226 29.2646 80.7788 29.7126L80.848 29.1153H81.2427H81.2358ZM80.7095 30.5188C80.7095 29.8395 80.2664 29.4065 79.6709 29.4065C78.9646 29.4065 78.3622 30.0261 78.3622 30.8622C78.3622 31.5491 78.7984 31.9821 79.4008 31.9821C80.1694 31.9821 80.7095 31.34 80.7095 30.5188ZM78.9092 33.1541C78.9231 32.9675 79.0823 32.8182 79.2485 32.8182C79.4147 32.8182 79.5532 32.9675 79.5324 33.1541C79.5324 33.3408 79.3731 33.4901 79.2 33.4901C79.0269 33.4901 78.9023 33.3333 78.9092 33.1541Z" fill="white"/>
<path d="M82.1155 29.1153H82.4755L82.4201 29.6006C82.7179 29.2273 83.0572 29.0332 83.4588 29.0332C84.0404 29.0332 84.4628 29.4438 84.4628 30.1232C84.4628 30.4292 84.4213 30.6681 84.4005 30.8249L84.2205 32.2732H83.8535L84.0335 30.8249C84.0543 30.6308 84.0889 30.3994 84.0889 30.1456C84.0889 29.6976 83.8327 29.4065 83.4172 29.4065C83.0503 29.4065 82.704 29.6006 82.5102 29.9291C82.3717 30.1605 82.3094 30.4964 82.254 30.907L82.0809 32.2732H81.7139L82.1224 29.1153H82.1155Z" fill="white"/>
<path d="M86.4775 31.3487L86.8445 31.2144C86.9622 31.737 87.2392 31.9684 87.5647 31.9684C87.9316 31.9684 88.2779 31.6399 88.2779 31.1696C88.2779 30.8038 88.1186 30.5649 87.7932 30.2215L87.4192 29.8258C87.17 29.5645 87.0384 29.2733 87.0384 28.9001C87.0384 28.3775 87.3569 27.8848 87.9663 27.8848C88.4025 27.8848 88.7626 28.1759 88.9287 28.7732L88.5618 28.8777C88.4648 28.5193 88.2432 28.2804 87.9386 28.2804C87.6547 28.2804 87.44 28.5193 87.44 28.9001C87.44 29.1688 87.5162 29.3555 87.7239 29.5645L88.0078 29.8631C88.451 30.3185 88.6795 30.6843 88.6795 31.1472C88.6795 31.7444 88.2294 32.3566 87.5716 32.3566C87.0176 32.3566 86.6368 31.9982 86.4775 31.3338V31.3487Z" fill="white"/>
<path d="M89.4756 31.1686C89.4756 31.0417 89.4964 30.7207 89.5448 30.3101L89.6902 29.1082H90.0642L89.898 30.4296C89.8564 30.7655 89.8287 30.9969 89.8287 31.1462C89.8287 31.6464 90.1749 31.9674 90.6458 31.9674C90.9366 31.9674 91.2136 31.8256 91.3728 31.6016C91.5183 31.3926 91.5598 31.1537 91.6221 30.6834L91.8298 29.1082H91.906C92.0445 29.1082 92.3561 29.0335 92.4115 28.5781H92.7993C92.7369 29.0634 92.4461 29.3097 92.1553 29.4068L92.0445 30.3026C91.9545 31.0044 91.8783 31.5121 91.6775 31.8107C91.4559 32.1392 91.0682 32.3407 90.6319 32.3407C89.9464 32.3407 89.4756 31.848 89.4756 31.1612V31.1686ZM90.0503 33.147C90.0642 32.9604 90.2234 32.811 90.3896 32.811C90.5558 32.811 90.6943 32.9604 90.6735 33.147C90.6735 33.3336 90.5142 33.4829 90.3411 33.4829C90.168 33.4829 90.0434 33.3262 90.0503 33.147Z" fill="white"/>
<path d="M94.8421 28.0039H95.2368L95.0083 29.7807H97.0371L97.2656 28.0039H97.6534L97.0994 32.2742H96.7117L96.9887 30.1913H94.946L94.6759 32.2742H94.2812L94.8421 28.0039Z" fill="white"/>
<path d="M98.2422 31.1686C98.2422 31.0417 98.263 30.7207 98.3114 30.3101L98.4568 29.1082H98.8307L98.6646 30.4296C98.623 30.7655 98.5953 30.9969 98.5953 31.1462C98.5953 31.6464 98.9415 31.9674 99.4124 31.9674C99.7032 31.9674 99.9802 31.8256 100.139 31.6016C100.292 31.3926 100.326 31.1537 100.389 30.6834L100.596 29.1082H100.673C100.811 29.1082 101.123 29.0335 101.178 28.5781H101.566C101.504 29.0634 101.213 29.3097 100.922 29.4068L100.811 30.3026C100.721 31.0044 100.645 31.5121 100.444 31.8107C100.223 32.1392 99.8348 32.3407 99.3985 32.3407C98.713 32.3407 98.2422 31.848 98.2422 31.1612V31.1686Z" fill="white"/>
<path d="M101.864 29.1153H102.224L102.168 29.6006C102.466 29.2273 102.805 29.0332 103.207 29.0332C103.788 29.0332 104.211 29.4438 104.211 30.1232C104.211 30.4292 104.169 30.6681 104.149 30.8249L103.969 32.2732H103.602L103.782 30.8249C103.802 30.6308 103.837 30.3994 103.837 30.1456C103.837 29.6976 103.581 29.4065 103.165 29.4065C102.798 29.4065 102.452 29.6006 102.258 29.9291C102.12 30.1605 102.057 30.4964 102.002 30.907L101.829 32.2732H101.462L101.87 29.1153H101.864Z" fill="white"/>
<path d="M104.771 32.6614L105.111 32.5345C105.312 32.9302 105.672 33.1317 106.142 33.1317C106.752 33.1317 107.209 32.7659 107.278 32.3553C107.32 32.109 107.347 31.9373 107.382 31.7133C107.063 32.0866 106.676 32.2732 106.219 32.2732C105.381 32.2732 104.875 31.6461 104.875 30.8324C104.875 29.8245 105.699 29.0332 106.523 29.0332C107.008 29.0332 107.368 29.2646 107.645 29.72L107.714 29.1228H108.081L107.742 31.7954C107.673 32.3255 107.617 32.7435 107.278 33.087C107.022 33.3557 106.599 33.52 106.142 33.52C105.492 33.52 105.021 33.2064 104.771 32.6689V32.6614ZM107.555 30.5039C107.555 29.8171 107.098 29.4139 106.593 29.4139C105.845 29.4139 105.249 30.0186 105.249 30.8622C105.249 31.4968 105.651 31.9074 106.26 31.9074C107.001 31.9074 107.562 31.3176 107.562 30.5114L107.555 30.5039Z" fill="white"/>
<path d="M43.4082 15.4531H46.0117C48.0406 15.4531 48.9199 16.6849 48.9199 18.2601C48.9199 19.7084 47.9713 21.0597 46.0741 21.0597H45.4786V23.2695H43.4082V15.4531ZM45.8248 19.0589C46.448 19.0589 46.7665 18.7977 46.7665 18.2676C46.7665 17.7376 46.4203 17.4613 45.7694 17.4613H45.4855V19.0589H45.8317H45.8248Z" fill="white"/>
<path d="M49.8477 15.4531H51.918V18.1855H53.7668V15.4531H55.8372V23.2695H53.7668V20.2982H51.918V23.2695H49.8477V15.4531Z" fill="white"/>
<path d="M56.9238 19.3505C56.9238 17.1034 58.4679 15.252 60.8014 15.252C63.1349 15.252 64.679 17.1034 64.679 19.3505C64.679 21.7992 63.1211 23.4416 60.8014 23.4416C58.4818 23.4416 56.9238 21.7992 56.9238 19.3505ZM62.5117 19.3505C62.5117 18.2829 61.8747 17.4319 60.8084 17.4319C59.742 17.4319 59.0981 18.2829 59.0981 19.3505C59.0981 20.4181 59.7351 21.2766 60.8084 21.2766C61.8816 21.2766 62.5117 20.4405 62.5117 19.3505Z" fill="white"/>
<path d="M72.213 15.4531V23.2695H69.7064L67.7399 18.8051V23.2695H65.7734V15.4531H68.3562L70.2465 19.9473V15.4531H72.213Z" fill="white"/>
<path d="M80.7368 18.715V19.3347C80.7368 21.6415 79.5042 23.4407 77.053 23.4407C74.6018 23.4407 73.127 21.5818 73.127 19.4541C73.127 17.1921 74.5534 15.2734 77.1084 15.2734C78.5902 15.2734 79.615 15.8632 80.0859 16.3933L78.8049 17.9535C78.3617 17.5952 77.877 17.319 77.1569 17.319C75.9174 17.319 75.3289 18.2447 75.3289 19.3794C75.3289 20.6411 75.9728 21.3727 77.0392 21.3727C77.8286 21.3727 78.4033 21.0144 78.5071 20.4993H76.8384V18.715H80.7506H80.7368Z" fill="white"/>
<path d="M85.1822 17.633H83.6865V15.4531H88.7343V17.633H87.2387V23.2769H85.1752V17.633H85.1822Z" fill="white"/>
<path d="M89.5176 15.4531H91.5879V18.1855H93.4367V15.4531H95.5071V23.2695H93.4367V20.2982H91.5879V23.2695H89.5176V15.4531Z" fill="white"/>
<path d="M96.8359 20.2236V15.4532H98.8994V20.1041C98.8994 21.0075 99.1902 21.321 99.7511 21.321C100.263 21.321 100.603 21.0523 100.603 20.1041V15.4532H102.666V20.2161C102.666 22.4184 101.565 23.4935 99.758 23.4935C97.9508 23.4935 96.8498 22.4184 96.8498 20.2236H96.8359ZM99.6749 12.6461C100.423 12.6461 100.914 13.0567 100.914 13.7436C100.914 14.3109 100.582 14.6394 100.305 14.8783H99.2733C99.5849 14.6394 99.8065 14.3781 99.8065 14.1019C99.8065 13.8854 99.6957 13.7062 99.391 13.7062C99.2179 13.7062 99.0586 13.7361 98.9132 13.7809V12.788C99.0863 12.6984 99.3494 12.6387 99.661 12.6387L99.6749 12.6461Z" fill="white"/>
<path d="M105.45 20.3206L103.158 15.4531H105.249L106.503 18.3945L107.735 15.4531H109.819L107.527 20.3206V23.2695H105.457V20.3206H105.45Z" fill="white"/>
<path d="M113.773 17.633H112.277V15.4531H117.325V17.633H115.83V23.2769H113.766V17.633H113.773Z" fill="white"/>
<path d="M121.923 22.0078H119.569L119.237 23.2695H117.076L119.458 15.4531H122.076L124.471 23.2695H122.262L121.93 22.0078H121.923ZM121.411 20.0519L120.753 17.5285L120.088 20.0519H121.411Z" fill="white"/>
<path d="M133.812 23.2695H131.86L131.493 19.4695C131.465 19.156 131.424 18.6334 131.389 18.1183C131.285 18.6334 131.188 19.156 131.119 19.4695L130.191 23.2695H128.141L127.304 19.4695C127.234 19.156 127.13 18.5886 127.04 18.0436C127.02 18.5886 126.992 19.156 126.957 19.4695L126.667 23.2695H124.714L125.524 15.4531H128.183L129.014 19.589C129.076 19.8951 129.152 20.2982 129.229 20.679C129.291 20.2982 129.36 19.8951 129.429 19.589L130.399 15.4531H133.002L133.812 23.2695Z" fill="white"/>
<path d="M143.956 15.4531V23.2695H141.45L139.483 18.8051V23.2695H137.517V15.4531H140.099L141.99 19.9473V15.4531H143.956Z" fill="white"/>
<path d="M152.473 18.715V19.3347C152.473 21.6415 151.241 23.4407 148.789 23.4407C146.338 23.4407 144.863 21.5818 144.863 19.4541C144.863 17.1921 146.29 15.2734 148.845 15.2734C150.327 15.2734 151.351 15.8632 151.822 16.3933L150.541 17.9535C150.098 17.5952 149.613 17.319 148.893 17.319C147.654 17.319 147.065 18.2447 147.065 19.3794C147.065 20.6411 147.709 21.3727 148.776 21.3727C149.565 21.3727 150.14 21.0144 150.237 20.4993H148.568V18.715H152.48H152.473Z" fill="white"/>
<path d="M153.263 20.2236V15.4531H155.326V20.1041C155.326 21.0074 155.617 21.321 156.178 21.321C156.69 21.321 157.03 21.0522 157.03 20.1041V15.4531H159.093V20.2161C159.093 22.4184 157.992 23.4934 156.185 23.4934C154.378 23.4934 153.277 22.4184 153.277 20.2236H153.263Z" fill="white"/>
<path d="M161.869 20.3206L159.577 15.4531H161.668L162.922 18.3945L164.154 15.4531H166.231L163.939 20.3206V23.2695H161.869V20.3206Z" fill="white"/>
<path d="M166.758 15.4535H171.134V17.499H168.821V18.3352H171.134V20.2986H168.821V21.2019H171.134V23.2698H166.758V15.4535ZM168.96 14.1694L168.35 14.8786H166.917L168.06 13.3184H169.867L171.009 14.8786H169.576L168.96 14.1694Z" fill="white"/>
<path d="M179 15.4531V23.2695H176.494L174.527 18.8051V23.2695H172.561V15.4531H175.143L177.034 19.9473V15.4531H179Z" fill="white"/>
</svg>
