<svg width="1067" height="234" viewBox="0 0 1067 234" fill="none" xmlns="http://www.w3.org/2000/svg">
<path fill-rule="evenodd" clip-rule="evenodd" d="M3.78272 81.2001L3.78272 49.6441L7.50183 49.6441C7.60603 49.6441 7.70921 49.6235 7.80542 49.5835C7.90163 49.5434 7.98899 49.4848 8.06244 49.4109C8.1359 49.337 8.19401 49.2493 8.23344 49.1529C8.27288 49.0565 8.29284 48.9532 8.2922 48.849L8.2922 43.9622L11.4295 43.9622C11.6404 43.9622 11.8426 43.8784 11.9918 43.7293C12.1409 43.5802 12.2247 43.378 12.2247 43.1671L12.2247 33.7909C12.2234 33.5805 12.1392 33.379 11.9904 33.2301C11.8415 33.0813 11.64 32.9971 11.4295 32.9959L2.0856 32.9959L2.0856 20.9291L6.35264 20.9291L6.35264 27.1055C6.35391 27.316 6.43811 27.5175 6.58697 27.6663C6.73582 27.8151 6.93736 27.8993 7.14787 27.9006L13.6551 27.9006C13.8656 27.8993 14.0672 27.8151 14.216 27.6663C14.3649 27.5175 14.4491 27.316 14.4503 27.1055L14.4503 20.9291L20.3563 20.9291C20.4947 20.9292 20.6307 20.893 20.7506 20.824C20.8706 20.7551 20.9704 20.6559 21.04 20.5364C21.1593 20.4664 21.2582 20.3665 21.3271 20.2467C21.396 20.1268 21.4324 19.991 21.4328 19.8528L21.4328 13.9527L27.6297 13.9527C27.8393 13.9527 28.0403 13.8694 28.1886 13.7212C28.3368 13.573 28.4201 13.372 28.4201 13.1625L28.4201 6.65638C28.4207 6.5522 28.4007 6.44891 28.3613 6.35248C28.3218 6.25604 28.2637 6.16836 28.1903 6.09447C28.1168 6.02057 28.0295 5.96193 27.9333 5.92191C27.8371 5.88189 27.7339 5.86129 27.6297 5.86129L21.4473 5.86129L21.4473 1.59016L33.4969 1.59016L33.4969 10.9372C33.4969 11.1468 33.5801 11.3478 33.7284 11.496C33.8766 11.6442 34.0776 11.7274 34.2872 11.7274L43.665 11.7274C43.7692 11.7281 43.8725 11.7081 43.969 11.6687C44.0654 11.6293 44.1532 11.5712 44.2271 11.4977C44.301 11.4243 44.3596 11.3369 44.3996 11.2407C44.4397 11.1446 44.4603 11.0414 44.4603 10.9372L44.4603 7.80052L49.3528 7.80052C49.5624 7.80052 49.7635 7.71726 49.9117 7.56906C50.0599 7.42087 50.1432 7.21987 50.1432 7.01028L50.1432 3.29183L81.7048 3.29183C81.9157 3.29183 82.1179 3.20807 82.2671 3.05896C82.4162 2.90985 82.5 2.70761 82.5 2.49675C82.5006 2.39215 82.4805 2.28848 82.4408 2.19173C82.401 2.09498 82.3425 2.00707 82.2685 1.93311C82.1945 1.85915 82.1066 1.80061 82.0099 1.76088C81.9131 1.72115 81.8094 1.70103 81.7048 1.70167L49.3528 1.70167C49.2482 1.70103 49.1445 1.72115 49.0477 1.76088C48.951 1.80061 48.8631 1.85915 48.7891 1.93311C48.7151 2.00707 48.6565 2.09497 48.6168 2.19173C48.5771 2.28848 48.5569 2.39215 48.5576 2.49674L48.5576 6.21036L44.4603 6.21036L44.4603 2.49674C44.4609 2.39215 44.4408 2.28848 44.4011 2.19173C44.3613 2.09497 44.3027 2.00707 44.2288 1.93311C44.1548 1.85915 44.0669 1.80061 43.9701 1.76088C43.8733 1.72115 43.7697 1.70103 43.665 1.70167L38.5688 1.70167C38.3579 1.70167 38.1557 1.78544 38.0065 1.93454C37.8574 2.08365 37.7736 2.28588 37.7736 2.49674L37.7736 7.01028C37.7749 7.22031 37.8592 7.4213 38.0082 7.56936C38.1572 7.71742 38.3588 7.80052 38.5688 7.80052L42.8747 7.80052L42.8747 10.1373L35.0825 10.1373L35.0825 0.795086C35.0825 0.584218 34.9987 0.381979 34.8495 0.232873C34.7004 0.083766 34.4981 -2.09823e-06 34.2872 -2.10745e-06L20.6278 -2.70452e-06C20.4178 0.00127796 20.2168 0.0856054 20.0687 0.234573C19.9206 0.383541 19.8375 0.585054 19.8375 0.795085L19.8375 5.86129L14.4503 5.86129L14.4503 0.795085C14.4503 0.585502 14.3671 0.384502 14.2188 0.236304C14.0706 0.0881068 13.8696 0.00484979 13.66 0.00484978L1.29037 0.00484924C1.08031 0.00612991 0.879288 0.0904573 0.731201 0.239425C0.583115 0.388393 0.5 0.589891 0.5 0.799923L0.499999 13.1673C0.499999 13.3769 0.583274 13.5779 0.731498 13.7261C0.879722 13.8743 1.08076 13.9576 1.29037 13.9576L6.3575 13.9576L6.3575 19.3486L1.29037 19.3486C1.08076 19.3486 0.879722 19.4318 0.731498 19.58C0.583274 19.7282 0.499999 19.9292 0.499999 20.1388L0.499999 33.7958C0.499999 34.0058 0.583113 34.2073 0.7312 34.3563C0.879286 34.5053 1.08031 34.5896 1.29037 34.5909L10.6391 34.5909L10.6391 42.3769L8.29706 42.3769L8.29706 38.0718C8.29706 37.8622 8.21379 37.6612 8.06557 37.513C7.91734 37.3648 7.71631 37.2815 7.50669 37.2815L2.99235 37.2815C2.78228 37.2815 2.58075 37.3646 2.43175 37.5127C2.28276 37.6608 2.1984 37.8617 2.19712 38.0718L2.19712 43.1719C2.19712 43.3828 2.2809 43.585 2.43004 43.7341C2.57917 43.8832 2.78144 43.967 2.99235 43.967L6.71145 43.967L6.71145 48.0588L2.99235 48.0588C2.78184 48.06 2.5803 48.1442 2.43144 48.293C2.28258 48.4419 2.19839 48.6434 2.19712 48.8538L2.19712 81.2049C2.19839 81.4154 2.28258 81.6169 2.43144 81.7657C2.5803 81.9146 2.78183 81.9987 2.99234 82C3.09678 81.9994 3.20005 81.9782 3.29629 81.9376C3.39253 81.8971 3.47985 81.838 3.55324 81.7637C3.62663 81.6894 3.68467 81.6014 3.72405 81.5047C3.76342 81.408 3.78336 81.3045 3.78272 81.2001ZM12.8599 20.9291L12.8599 26.3152L7.94308 26.3152L7.94308 20.9291L12.8599 20.9291ZM39.3641 6.21036L39.3641 3.30152L42.8747 3.30152L42.8747 6.21036L39.3641 6.21036ZM2.0856 12.3674L2.0856 1.59016L12.8599 1.59016L12.8599 5.86615L7.47274 5.86615C7.33264 5.86382 7.19446 5.89901 7.07254 5.96806C6.95061 6.0371 6.8494 6.1375 6.77935 6.25884C6.65253 6.32626 6.54634 6.42678 6.47206 6.54969C6.39778 6.67261 6.3582 6.81335 6.3575 6.95696L6.3575 12.3674L2.0856 12.3674ZM7.94308 12.3674L7.94308 7.44662L12.8599 7.44662L12.8599 12.3674L7.94308 12.3674ZM14.4503 12.3674L14.4503 7.44662L19.8375 7.44662L19.8375 12.3674L14.4503 12.3674ZM21.4279 12.3674L21.4279 7.44662L26.8102 7.44662L26.8102 12.3674L21.4279 12.3674ZM7.94308 19.3486L7.94308 13.9527L12.8599 13.9527L12.8599 19.3486L7.94308 19.3486ZM14.4503 19.3486L14.4503 13.9527L19.8375 13.9527L19.8375 19.3486L14.4503 19.3486ZM3.78272 42.3769L3.78272 38.8669L6.69207 38.8669L6.69207 42.3769L3.78272 42.3769Z" fill="#B5030A"/>
<path fill-rule="evenodd" clip-rule="evenodd" d="M81.7001 230.717H50.1441V226.998C50.1441 226.894 50.1235 226.791 50.0835 226.695C50.0435 226.598 49.9848 226.511 49.9109 226.438C49.837 226.364 49.7493 226.306 49.6529 226.267C49.5565 226.227 49.4532 226.207 49.349 226.208H44.4622V223.071C44.4622 222.86 44.3784 222.657 44.2293 222.508C44.0802 222.359 43.878 222.275 43.6671 222.275H34.291C34.0805 222.277 33.879 222.361 33.7301 222.51C33.5813 222.658 33.4971 222.86 33.4959 223.071V232.414H21.4291L21.4291 228.147H27.6055C27.816 228.146 28.0175 228.062 28.1663 227.913C28.3151 227.764 28.3993 227.563 28.4006 227.352V220.845C28.3993 220.634 28.3151 220.433 28.1663 220.284C28.0175 220.135 27.816 220.051 27.6055 220.05H21.4291V214.144C21.4292 214.005 21.393 213.869 21.324 213.749C21.2551 213.629 21.1559 213.53 21.0364 213.46C20.9664 213.341 20.8665 213.242 20.7467 213.173C20.6268 213.104 20.491 213.068 20.3528 213.067H14.4527L14.4527 206.87C14.4527 206.661 14.3694 206.46 14.2212 206.311C14.0731 206.163 13.8721 206.08 13.6625 206.08H7.15638C7.0522 206.079 6.94892 206.099 6.85248 206.139C6.75604 206.178 6.66836 206.236 6.59447 206.31C6.52057 206.383 6.46193 206.471 6.42191 206.567C6.3819 206.663 6.3613 206.766 6.3613 206.87L6.3613 213.053H2.09016L2.09016 201.003H11.4372C11.6468 201.003 11.8478 200.92 11.996 200.772C12.1442 200.623 12.2274 200.422 12.2274 200.213V190.835C12.2281 190.731 12.2081 190.627 12.1687 190.531C12.1293 190.435 12.0712 190.347 11.9977 190.273C11.9243 190.199 11.8369 190.14 11.7407 190.1C11.6446 190.06 11.5414 190.04 11.4372 190.04H8.30052L8.30052 185.147C8.30052 184.938 8.21726 184.737 8.06906 184.588C7.92087 184.44 7.71987 184.357 7.51028 184.357H3.79183L3.79183 152.795C3.79183 152.584 3.70807 152.382 3.55896 152.233C3.40985 152.084 3.20761 152 2.99675 152C2.89215 151.999 2.78848 152.019 2.69173 152.059C2.59498 152.099 2.50707 152.158 2.43311 152.231C2.35915 152.305 2.30061 152.393 2.26088 152.49C2.22115 152.587 2.20103 152.691 2.20167 152.795L2.20167 185.147C2.20103 185.252 2.22115 185.355 2.26088 185.452C2.30061 185.549 2.35915 185.637 2.43311 185.711C2.50707 185.785 2.59498 185.843 2.69173 185.883C2.78848 185.923 2.89215 185.943 2.99675 185.942H6.71036L6.71036 190.04H2.99675C2.89215 190.039 2.78848 190.059 2.69173 190.099C2.59498 190.139 2.50707 190.197 2.43311 190.271C2.35915 190.345 2.30061 190.433 2.26088 190.53C2.22115 190.627 2.20103 190.73 2.20167 190.835L2.20167 195.931C2.20167 196.142 2.28544 196.344 2.43455 196.493C2.58365 196.643 2.78588 196.726 2.99675 196.726H7.51028C7.72031 196.725 7.9213 196.641 8.06936 196.492C8.21742 196.343 8.30052 196.141 8.30052 195.931V191.625H10.6373V199.418H1.29509C1.08422 199.418 0.881981 199.501 0.732875 199.65C0.583768 199.8 0.5 200.002 0.5 200.213L0.5 213.872C0.501281 214.082 0.585608 214.283 0.734576 214.431C0.883544 214.579 1.08506 214.663 1.29509 214.663H6.3613L6.3613 220.05H1.29509C1.08551 220.05 0.884505 220.133 0.736307 220.281C0.58811 220.429 0.504853 220.63 0.504853 220.84L0.504853 233.21C0.506133 233.42 0.590461 233.621 0.739429 233.769C0.888397 233.917 1.08989 234 1.29993 234H13.6673C13.8769 234 14.0779 233.917 14.2261 233.769C14.3743 233.62 14.4576 233.419 14.4576 233.21V228.143H19.8486L19.8486 233.21C19.8486 233.419 19.9318 233.62 20.08 233.769C20.2282 233.917 20.4292 234 20.6388 234H34.2958C34.5058 234 34.7073 233.917 34.8563 233.769C35.0053 233.621 35.0896 233.42 35.0909 233.21V223.861H42.8769V226.203H38.5718C38.3622 226.203 38.1612 226.286 38.013 226.434C37.8648 226.583 37.7815 226.784 37.7815 226.993V231.508C37.7815 231.718 37.8646 231.919 38.0127 232.068C38.1608 232.217 38.3618 232.302 38.5718 232.303H43.6719C43.8828 232.303 44.085 232.219 44.2341 232.07C44.3832 231.921 44.467 231.719 44.467 231.508V227.789H48.5588V231.508C48.56 231.718 48.6442 231.92 48.7931 232.069C48.9419 232.217 49.1434 232.302 49.3538 232.303H81.7049C81.9154 232.302 82.1169 232.217 82.2657 232.069C82.4146 231.92 82.4987 231.718 82.5 231.508C82.4994 231.403 82.4782 231.3 82.4376 231.204C82.3971 231.107 82.338 231.02 82.2637 230.947C82.1894 230.873 82.1014 230.815 82.0047 230.776C81.908 230.737 81.8045 230.717 81.7001 230.717ZM21.4291 221.64H26.8152V226.557H21.4291V221.64ZM6.71036 195.136H3.80152L3.80152 191.625H6.71036L6.71036 195.136ZM12.8674 232.414H2.09016L2.09016 221.64H6.36615L6.36615 227.027C6.36382 227.167 6.39901 227.306 6.46806 227.427C6.53711 227.549 6.6375 227.651 6.75884 227.721C6.82627 227.847 6.92678 227.954 7.0497 228.028C7.17262 228.102 7.31335 228.142 7.45696 228.143H12.8674V232.414ZM12.8674 226.557H7.94662V221.64H12.8674L12.8674 226.557ZM12.8674 220.05H7.94662L7.94662 214.663H12.8674V220.05ZM12.8674 213.072H7.94662L7.94662 207.69H12.8674L12.8674 213.072ZM19.8486 226.557H14.4527L14.4527 221.64H19.8486V226.557ZM19.8486 220.05H14.4527V214.663H19.8486V220.05ZM42.8769 230.717H39.3669V227.808H42.8769V230.717Z" fill="#B5030A"/>
<path fill-rule="evenodd" clip-rule="evenodd" d="M1063.22 152.8L1063.22 184.356L1059.5 184.356C1059.39 184.356 1059.29 184.377 1059.19 184.417C1059.1 184.457 1059.01 184.515 1058.94 184.589C1058.86 184.663 1058.81 184.751 1058.77 184.847C1058.73 184.944 1058.71 185.047 1058.71 185.151L1058.71 190.038L1055.57 190.038C1055.36 190.038 1055.16 190.122 1055.01 190.271C1054.86 190.42 1054.78 190.622 1054.78 190.833L1054.78 200.209C1054.78 200.42 1054.86 200.621 1055.01 200.77C1055.16 200.919 1055.36 201.003 1055.57 201.004L1064.91 201.004L1064.91 213.071L1060.65 213.071L1060.65 206.895C1060.65 206.684 1060.56 206.483 1060.41 206.334C1060.26 206.185 1060.06 206.101 1059.85 206.099L1053.34 206.099C1053.13 206.101 1052.93 206.185 1052.78 206.334C1052.64 206.483 1052.55 206.684 1052.55 206.895L1052.55 213.071L1046.64 213.071C1046.51 213.071 1046.37 213.107 1046.25 213.176C1046.13 213.245 1046.03 213.344 1045.96 213.464C1045.84 213.534 1045.74 213.633 1045.67 213.753C1045.6 213.873 1045.57 214.009 1045.57 214.147L1045.57 220.047L1039.37 220.047C1039.16 220.047 1038.96 220.131 1038.81 220.279C1038.66 220.427 1038.58 220.628 1038.58 220.838L1038.58 227.344C1038.58 227.448 1038.6 227.551 1038.64 227.648C1038.68 227.744 1038.74 227.832 1038.81 227.906C1038.88 227.979 1038.97 228.038 1039.07 228.078C1039.16 228.118 1039.27 228.139 1039.37 228.139L1045.55 228.139L1045.55 232.41L1033.5 232.41L1033.5 223.063C1033.5 222.853 1033.42 222.652 1033.27 222.504C1033.12 222.356 1032.92 222.273 1032.71 222.273L1023.33 222.273C1023.23 222.272 1023.13 222.292 1023.03 222.331C1022.93 222.371 1022.85 222.429 1022.77 222.502C1022.7 222.576 1022.64 222.663 1022.6 222.759C1022.56 222.855 1022.54 222.959 1022.54 223.063L1022.54 226.199L1017.65 226.199C1017.44 226.199 1017.24 226.283 1017.09 226.431C1016.94 226.579 1016.86 226.78 1016.86 226.99L1016.86 230.708L985.295 230.708C985.084 230.708 984.882 230.792 984.733 230.941C984.584 231.09 984.5 231.292 984.5 231.503C984.499 231.608 984.519 231.712 984.559 231.808C984.599 231.905 984.658 231.993 984.731 232.067C984.805 232.141 984.893 232.199 984.99 232.239C985.087 232.279 985.191 232.299 985.295 232.298L1017.65 232.298C1017.75 232.299 1017.86 232.279 1017.95 232.239C1018.05 232.199 1018.14 232.141 1018.21 232.067C1018.28 231.993 1018.34 231.905 1018.38 231.808C1018.42 231.712 1018.44 231.608 1018.44 231.503L1018.44 227.79L1022.54 227.79L1022.54 231.503C1022.54 231.608 1022.56 231.712 1022.6 231.808C1022.64 231.905 1022.7 231.993 1022.77 232.067C1022.85 232.141 1022.93 232.199 1023.03 232.239C1023.13 232.279 1023.23 232.299 1023.33 232.298L1028.43 232.298C1028.64 232.298 1028.84 232.215 1028.99 232.065C1029.14 231.916 1029.23 231.714 1029.23 231.503L1029.23 226.99C1029.23 226.78 1029.14 226.579 1028.99 226.431C1028.84 226.283 1028.64 226.199 1028.43 226.199L1024.13 226.199L1024.13 223.863L1031.92 223.863L1031.92 233.205C1031.92 233.416 1032 233.618 1032.15 233.767C1032.3 233.916 1032.5 234 1032.71 234L1046.37 234C1046.58 233.999 1046.78 233.914 1046.93 233.765C1047.08 233.616 1047.16 233.415 1047.16 233.205L1047.16 228.139L1052.55 228.139L1052.55 233.205C1052.55 233.414 1052.63 233.615 1052.78 233.764C1052.93 233.912 1053.13 233.995 1053.34 233.995L1065.71 233.995C1065.92 233.994 1066.12 233.91 1066.27 233.761C1066.42 233.612 1066.5 233.41 1066.5 233.2L1066.5 220.833C1066.5 220.623 1066.42 220.422 1066.27 220.274C1066.12 220.126 1065.92 220.042 1065.71 220.042L1060.64 220.042L1060.64 214.651L1065.71 214.651C1065.92 214.651 1066.12 214.568 1066.27 214.42C1066.42 214.272 1066.5 214.071 1066.5 213.861L1066.5 200.204C1066.5 199.994 1066.42 199.793 1066.27 199.644C1066.12 199.495 1065.92 199.41 1065.71 199.409L1056.36 199.409L1056.36 191.623L1058.7 191.623L1058.7 195.928C1058.7 196.138 1058.79 196.339 1058.93 196.487C1059.08 196.635 1059.28 196.718 1059.49 196.718L1064.01 196.718C1064.22 196.718 1064.42 196.635 1064.57 196.487C1064.72 196.339 1064.8 196.138 1064.8 195.928L1064.8 190.828C1064.8 190.617 1064.72 190.415 1064.57 190.266C1064.42 190.117 1064.22 190.033 1064.01 190.033L1060.29 190.033L1060.29 185.941L1064.01 185.941C1064.22 185.94 1064.42 185.856 1064.57 185.707C1064.72 185.558 1064.8 185.357 1064.8 185.146L1064.8 152.795C1064.8 152.585 1064.72 152.383 1064.57 152.234C1064.42 152.085 1064.22 152.001 1064.01 152C1063.9 152.001 1063.8 152.022 1063.7 152.062C1063.61 152.103 1063.52 152.162 1063.45 152.236C1063.37 152.311 1063.32 152.399 1063.28 152.495C1063.24 152.592 1063.22 152.695 1063.22 152.8ZM1054.14 213.071L1054.14 207.685L1059.06 207.685L1059.06 213.071L1054.14 213.071ZM1027.64 227.79L1027.64 230.698L1024.13 230.698L1024.13 227.79L1027.64 227.79ZM1064.91 221.633L1064.91 232.41L1054.14 232.41L1054.14 228.134L1059.53 228.134C1059.67 228.136 1059.81 228.101 1059.93 228.032C1060.05 227.963 1060.15 227.862 1060.22 227.741C1060.35 227.674 1060.45 227.573 1060.53 227.45C1060.6 227.327 1060.64 227.187 1060.64 227.043L1060.64 221.633L1064.91 221.633ZM1059.06 221.633L1059.06 226.553L1054.14 226.553L1054.14 221.633L1059.06 221.633ZM1052.55 221.633L1052.55 226.553L1047.16 226.553L1047.16 221.633L1052.55 221.633ZM1045.57 221.633L1045.57 226.553L1040.19 226.553L1040.19 221.633L1045.57 221.633ZM1059.06 214.651L1059.06 220.047L1054.14 220.047L1054.14 214.651L1059.06 214.651ZM1052.55 214.651L1052.55 220.047L1047.16 220.047L1047.16 214.651L1052.55 214.651ZM1063.22 191.623L1063.22 195.133L1060.31 195.133L1060.31 191.623L1063.22 191.623Z" fill="#B5030A"/>
<path fill-rule="evenodd" clip-rule="evenodd" d="M985.3 4.28273L1016.86 4.28273L1016.86 8.00184C1016.86 8.10604 1016.88 8.20922 1016.92 8.30542C1016.96 8.40164 1017.02 8.489 1017.09 8.56245C1017.16 8.63591 1017.25 8.69402 1017.35 8.73345C1017.44 8.77288 1017.55 8.79285 1017.65 8.79221L1022.54 8.79221L1022.54 11.9295C1022.54 12.1404 1022.62 12.3426 1022.77 12.4918C1022.92 12.6409 1023.12 12.7247 1023.33 12.7247L1032.71 12.7247C1032.92 12.7234 1033.12 12.6392 1033.27 12.4904C1033.42 12.3415 1033.5 12.14 1033.5 11.9295L1033.5 2.5856L1045.57 2.5856L1045.57 6.85265L1039.39 6.85265C1039.18 6.85391 1038.98 6.93811 1038.83 7.08697C1038.68 7.23583 1038.6 7.43737 1038.6 7.64788L1038.6 14.1551C1038.6 14.3656 1038.68 14.5672 1038.83 14.716C1038.98 14.8649 1039.18 14.9491 1039.39 14.9503L1045.57 14.9503L1045.57 20.8563C1045.57 20.9947 1045.61 21.1307 1045.68 21.2506C1045.74 21.3706 1045.84 21.4704 1045.96 21.54C1046.03 21.6593 1046.13 21.7582 1046.25 21.8271C1046.37 21.896 1046.51 21.9324 1046.65 21.9328L1052.55 21.9328L1052.55 28.1297C1052.55 28.3393 1052.63 28.5403 1052.78 28.6886C1052.93 28.8368 1053.13 28.9201 1053.34 28.9201L1059.84 28.9201C1059.95 28.9207 1060.05 28.9007 1060.15 28.8613C1060.24 28.8218 1060.33 28.7637 1060.41 28.6903C1060.48 28.6168 1060.54 28.5295 1060.58 28.4333C1060.62 28.3371 1060.64 28.2339 1060.64 28.1297L1060.64 21.9473L1064.91 21.9473L1064.91 33.9969L1055.56 33.9969C1055.35 33.9969 1055.15 34.0801 1055 34.2284C1054.86 34.3766 1054.77 34.5776 1054.77 34.7872L1054.77 44.165C1054.77 44.2692 1054.79 44.3725 1054.83 44.469C1054.87 44.5654 1054.93 44.6532 1055 44.7271C1055.08 44.801 1055.16 44.8596 1055.26 44.8996C1055.36 44.9397 1055.46 44.9603 1055.56 44.9603L1058.7 44.9603L1058.7 49.8528C1058.7 50.0624 1058.78 50.2635 1058.93 50.4117C1059.08 50.5599 1059.28 50.6432 1059.49 50.6432L1063.21 50.6432L1063.21 82.2048C1063.21 82.4157 1063.29 82.6179 1063.44 82.7671C1063.59 82.9162 1063.79 83 1064 83C1064.11 83.0006 1064.21 82.9805 1064.31 82.9408C1064.41 82.901 1064.49 82.8425 1064.57 82.7685C1064.64 82.6945 1064.7 82.6066 1064.74 82.5099C1064.78 82.4131 1064.8 82.3094 1064.8 82.2048L1064.8 49.8528C1064.8 49.7482 1064.78 49.6445 1064.74 49.5477C1064.7 49.451 1064.64 49.3631 1064.57 49.2891C1064.49 49.2151 1064.41 49.1565 1064.31 49.1168C1064.21 49.0771 1064.11 49.0569 1064 49.0576L1060.29 49.0576L1060.29 44.9603L1064 44.9603C1064.11 44.9609 1064.21 44.9408 1064.31 44.9011C1064.41 44.8613 1064.49 44.8027 1064.57 44.7288C1064.64 44.6548 1064.7 44.5669 1064.74 44.4701C1064.78 44.3733 1064.8 44.2697 1064.8 44.165L1064.8 39.0688C1064.8 38.8579 1064.71 38.6557 1064.57 38.5065C1064.42 38.3574 1064.21 38.2736 1064 38.2736L1059.49 38.2736C1059.28 38.2749 1059.08 38.3592 1058.93 38.5082C1058.78 38.6572 1058.7 38.8588 1058.7 39.0688L1058.7 43.3747L1056.36 43.3747L1056.36 35.5825L1065.7 35.5825C1065.92 35.5825 1066.12 35.4987 1066.27 35.3495C1066.42 35.2004 1066.5 34.9981 1066.5 34.7872L1066.5 21.1278C1066.5 20.9178 1066.41 20.7168 1066.27 20.5687C1066.12 20.4206 1065.91 20.3375 1065.7 20.3375L1060.64 20.3375L1060.64 14.9503L1065.7 14.9503C1065.91 14.9503 1066.12 14.8671 1066.26 14.7188C1066.41 14.5706 1066.5 14.3696 1066.5 14.16L1066.5 1.79037C1066.49 1.58031 1066.41 1.37929 1066.26 1.2312C1066.11 1.08311 1065.91 1 1065.7 1L1053.33 1C1053.12 1 1052.92 1.08328 1052.77 1.2315C1052.63 1.37972 1052.54 1.58076 1052.54 1.79038L1052.54 6.8575L1047.15 6.8575L1047.15 1.79038C1047.15 1.58076 1047.07 1.37972 1046.92 1.2315C1046.77 1.08328 1046.57 1 1046.36 1L1032.7 1C1032.49 1 1032.29 1.08312 1032.14 1.2312C1031.99 1.37929 1031.91 1.58032 1031.91 1.79038L1031.91 11.1391L1024.12 11.1391L1024.12 8.79707L1028.43 8.79707C1028.64 8.79707 1028.84 8.71379 1028.99 8.56557C1029.14 8.41735 1029.22 8.21631 1029.22 8.00669L1029.22 3.49235C1029.22 3.28228 1029.14 3.08075 1028.99 2.93176C1028.84 2.78276 1028.64 2.69841 1028.43 2.69712L1023.33 2.69712C1023.12 2.69712 1022.91 2.78091 1022.77 2.93004C1022.62 3.07917 1022.53 3.28144 1022.53 3.49235L1022.53 7.21146L1018.44 7.21146L1018.44 3.49235C1018.44 3.28184 1018.36 3.0803 1018.21 2.93145C1018.06 2.78259 1017.86 2.6984 1017.65 2.69712L985.295 2.69713C985.085 2.6984 984.883 2.78259 984.734 2.93145C984.585 3.08031 984.501 3.28184 984.5 3.49235C984.501 3.59679 984.522 3.70007 984.562 3.7963C984.603 3.89254 984.662 3.97986 984.736 4.05325C984.811 4.12664 984.899 4.18468 984.995 4.22406C985.092 4.26343 985.195 4.28337 985.3 4.28273ZM1045.57 13.3599L1040.18 13.3599L1040.18 8.44309L1045.57 8.44309L1045.57 13.3599ZM1060.29 39.8641L1063.2 39.8641L1063.2 43.3747L1060.29 43.3747L1060.29 39.8641ZM1054.13 2.5856L1064.91 2.5856L1064.91 13.3599L1060.63 13.3599L1060.63 7.97274C1060.64 7.83264 1060.6 7.69446 1060.53 7.57254C1060.46 7.45062 1060.36 7.3494 1060.24 7.27935C1060.17 7.15253 1060.07 7.04634 1059.95 6.97206C1059.83 6.89778 1059.69 6.8582 1059.54 6.8575L1054.13 6.8575L1054.13 2.5856ZM1054.13 8.44309L1059.05 8.44309L1059.05 13.3599L1054.13 13.3599L1054.13 8.44309ZM1054.13 14.9503L1059.05 14.9503L1059.05 20.3375L1054.13 20.3375L1054.13 14.9503ZM1054.13 21.9279L1059.05 21.9279L1059.05 27.3102L1054.13 27.3102L1054.13 21.9279ZM1047.15 8.44309L1052.55 8.44309L1052.55 13.3599L1047.15 13.3599L1047.15 8.44309ZM1047.15 14.9503L1052.55 14.9503L1052.55 20.3375L1047.15 20.3375L1047.15 14.9503ZM1024.12 4.28273L1027.63 4.28273L1027.63 7.19207L1024.12 7.19207L1024.12 4.28273Z" fill="#B5030A"/>
</svg>
